AnekGurmukhi-Thin.ufo
<glyph name="zero" format="2">
  <advance width="1062"/>
  <unicode hex="0030"/>
  <outline>
    <contour>
      <point x="531" y="-18" type="curve" smooth="yes"/>
      <point x="797" y="-18"/>
      <point x="931" y="146"/>
      <point x="931" y="440" type="curve"/>
      <point x="931" y="836" type="line"/>
      <point x="931" y="1131"/>
      <point x="797" y="1296"/>
      <point x="531" y="1296" type="curve" smooth="yes"/>
      <point x="265" y="1296"/>
      <point x="131" y="1131"/>
      <point x="131" y="836" type="curve"/>
      <point x="131" y="440" type="line"/>
      <point x="131" y="146"/>
      <point x="265" y="-18"/>
    </contour>
    <contour>
      <point x="531" y="18" type="curve" smooth="yes"/>
      <point x="289" y="18"/>
      <point x="170" y="170"/>
      <point x="170" y="439" type="curve" smooth="yes"/>
      <point x="170" y="838" type="line" smooth="yes"/>
      <point x="170" y="1108"/>
      <point x="289" y="1260"/>
      <point x="531" y="1260" type="curve" smooth="yes"/>
      <point x="773" y="1260"/>
      <point x="892" y="1108"/>
      <point x="892" y="838" type="curve" smooth="yes"/>
      <point x="892" y="439" type="line" smooth="yes"/>
      <point x="892" y="170"/>
      <point x="773" y="18"/>
    </contour>
  </outline>
</glyph>
<glyph name="S" format="2">
  <advance width="1017"/>
  <unicode hex="0053"/>
  <anchor x="500" y="0" name="bottom"/>
  <anchor x="500" y="1278" name="top"/>
  <outline>
    <contour>
      <point x="505" y="-18" type="curve" smooth="yes"/>
      <point x="763" y="-18"/>
      <point x="899" y="97"/>
      <point x="899" y="309" type="curve" smooth="yes"/>
      <point x="899" y="334" type="line" smooth="yes"/>
      <point x="899" y="538"/>
      <point x="811" y="622"/>
      <point x="516" y="680" type="curve" smooth="yes"/>
      <point x="228" y="737"/>
      <point x="153" y="814"/>
      <point x="153" y="983" type="curve" smooth="yes"/>
      <point x="153" y="989" type="line" smooth="yes"/>
      <point x="153" y="1159"/>
      <point x="254" y="1259"/>
      <point x="484" y="1259" type="curve" smooth="yes"/>
      <point x="657" y="1259"/>
      <point x="778" y="1208"/>
      <point x="865" y="1148" type="curve"/>
      <point x="860" y="1190" type="line"/>
      <point x="791" y="1241"/>
      <point x="664" y="1295"/>
      <point x="486" y="1295" type="curve" smooth="yes"/>
      <point x="231" y="1295"/>
      <point x="114" y="1182"/>
      <point x="114" y="989" type="curve" smooth="yes"/>
      <point x="114" y="983" type="line" smooth="yes"/>
      <point x="114" y="798"/>
      <point x="197" y="706"/>
      <point x="500" y="647" type="curve" smooth="yes"/>
      <point x="774" y="596"/>
      <point x="860" y="522"/>
      <point x="860" y="333" type="curve" smooth="yes"/>
      <point x="860" y="309" type="line" smooth="yes"/>
      <point x="860" y="119"/>
      <point x="738" y="18"/>
      <point x="507" y="18" type="curve" smooth="yes"/>
      <point x="338" y="18"/>
      <point x="204" y="73"/>
      <point x="105" y="142" type="curve"/>
      <point x="111" y="97" type="line"/>
      <point x="182" y="45"/>
      <point x="318" y="-18"/>
    </contour>
  </outline>
</glyph>
<glyph name="Eth" format="2">
  <advance width="1137"/>
  <unicode hex="00D0"/>
  <anchor x="564" y="0" name="bottom"/>
  <anchor x="577" y="639" name="center"/>
  <anchor x="564" y="1278" name="top"/>
  <outline>
    <contour>
      <point x="14" y="648" type="line"/>
      <point x="609" y="648" type="line"/>
      <point x="609" y="682" type="line"/>
      <point x="14" y="682" type="line"/>
    </contour>
    <component base="D"/>
  </outline>
</glyph>
<glyph name="Danda.gm" format="2">
  <advance width="468"/>
  <unicode hex="0964"/>
  <outline>
    <contour>
      <point x="216" y="0" type="line"/>
      <point x="252" y="0" type="line"/>
      <point x="252" y="1193" type="line"/>
      <point x="216" y="1193" type="line"/>
    </contour>
  </outline>
</glyph>
<glyph name="Doubledanda.gm" format="2">
  <advance width="860"/>
  <unicode hex="0965"/>
  <outline>
    <contour>
      <point x="611" y="0" type="line"/>
      <point x="650" y="0" type="line"/>
      <point x="650" y="1193" type="line"/>
      <point x="611" y="1193" type="line"/>
    </contour>
    <contour>
      <point x="210" y="0" type="line"/>
      <point x="249" y="0" type="line"/>
      <point x="249" y="1193" type="line"/>
      <point x="210" y="1193" type="line"/>
    </contour>
  </outline>
</glyph>
<glyph name="AddakBindi.gm" format="2">
  <unicode hex="0A01"/>
  <anchor x="484" y="1200" name="_top"/>
  <outline>
    <contour>
      <point x="366.2" y="1557.05" type="curve" smooth="yes"/>
      <point x="400.4" y="1557.05"/>
      <point x="414.65" y="1577.95"/>
      <point x="414.65" y="1612.15" type="curve" smooth="yes"/>
      <point x="414.65" y="1620.7" type="line" smooth="yes"/>
      <point x="414.65" y="1654.9"/>
      <point x="399.45" y="1675.8"/>
      <point x="366.2" y="1675.8" type="curve" smooth="yes"/>
      <point x="332" y="1675.8"/>
      <point x="317.75" y="1654.9"/>
      <point x="317.75" y="1620.7" type="curve" smooth="yes"/>
      <point x="317.75" y="1612.15" type="line" smooth="yes"/>
      <point x="317.75" y="1577.95"/>
      <point x="332" y="1557.05"/>
    </contour>
    <component base="Addak.gm"/>
  </outline>
</glyph>
<glyph name="Bindi.gm" format="2">
  <unicode hex="0A02"/>
  <anchor x="500" y="1200" name="_top"/>
  <outline>
    <contour>
      <point x="376" y="1479" type="curve" smooth="yes"/>
      <point x="412" y="1479"/>
      <point x="427" y="1501"/>
      <point x="427" y="1537" type="curve" smooth="yes"/>
      <point x="427" y="1546" type="line" smooth="yes"/>
      <point x="427" y="1582"/>
      <point x="411" y="1604"/>
      <point x="376" y="1604" type="curve" smooth="yes"/>
      <point x="340" y="1604"/>
      <point x="325" y="1582"/>
      <point x="325" y="1546" type="curve" smooth="yes"/>
      <point x="325" y="1537" type="line" smooth="yes"/>
      <point x="325" y="1501"/>
      <point x="340" y="1479"/>
    </contour>
  </outline>
</glyph>
<glyph name="Visarga.gm" format="2">
  <advance width="503"/>
  <unicode hex="0A03"/>
  <outline>
    <contour>
      <point x="251" y="781" type="curve" smooth="yes"/>
      <point x="286" y="781"/>
      <point x="303" y="801"/>
      <point x="303" y="840" type="curve" smooth="yes"/>
      <point x="303" y="850" type="line" smooth="yes"/>
      <point x="303" y="888"/>
      <point x="286" y="908"/>
      <point x="251" y="908" type="curve" smooth="yes"/>
      <point x="218" y="908"/>
      <point x="200" y="888"/>
      <point x="200" y="850" type="curve" smooth="yes"/>
      <point x="200" y="840" type="line" smooth="yes"/>
      <point x="200" y="801"/>
      <point x="218" y="781"/>
    </contour>
    <contour>
      <point x="251" y="207" type="curve" smooth="yes"/>
      <point x="286" y="207"/>
      <point x="303" y="227"/>
      <point x="303" y="266" type="curve" smooth="yes"/>
      <point x="303" y="276" type="line" smooth="yes"/>
      <point x="303" y="314"/>
      <point x="286" y="334"/>
      <point x="251" y="334" type="curve" smooth="yes"/>
      <point x="218" y="334"/>
      <point x="200" y="314"/>
      <point x="200" y="276" type="curve" smooth="yes"/>
      <point x="200" y="266" type="line" smooth="yes"/>
      <point x="200" y="227"/>
      <point x="218" y="207"/>
    </contour>
  </outline>
</glyph>
<glyph name="VowelA.gm" format="2">
  <advance width="1525"/>
  <unicode hex="0A05"/>
  <anchor x="1425" y="1200" name="top"/>
  <outline>
    <contour>
      <point x="730" y="138" type="curve"/>
      <point x="768" y="138" type="line"/>
      <point x="787" y="277"/>
      <point x="800" y="455"/>
      <point x="800" y="643" type="curve" smooth="yes"/>
      <point x="800" y="760"/>
      <point x="796" y="895"/>
      <point x="786" y="1032" type="curve"/>
      <point x="752" y="1032" type="line"/>
      <point x="229" y="665" type="line"/>
      <point x="229" y="620" type="line"/>
      <point x="767" y="997" type="line"/>
      <point x="751" y="998" type="line"/>
      <point x="759" y="875"/>
      <point x="763" y="762"/>
      <point x="763" y="670" type="curve" smooth="yes"/>
      <point x="763" y="475"/>
      <point x="751" y="284"/>
    </contour>
    <contour>
      <point x="182" y="308" type="curve"/>
      <point x="220" y="308" type="line"/>
      <point x="239" y="447"/>
      <point x="253" y="625"/>
      <point x="253" y="813" type="curve" smooth="yes"/>
      <point x="253" y="930"/>
      <point x="248" y="1065"/>
      <point x="239" y="1193" type="curve"/>
      <point x="17" y="1193" type="line"/>
      <point x="18" y="1159" type="line"/>
      <point x="204" y="1159" type="line"/>
      <point x="212" y="1045"/>
      <point x="216" y="932"/>
      <point x="216" y="840" type="curve" smooth="yes"/>
      <point x="216" y="645"/>
      <point x="204" y="454"/>
    </contour>
    <contour>
      <point x="775" y="441" type="line"/>
      <point x="1291" y="800" type="line"/>
      <point x="1291" y="845" type="line"/>
      <point x="775" y="487" type="line"/>
    </contour>
    <component base="_cap.shiro_left"/>
    <component base="_danda" xOffset="1100"/>
  </outline>
</glyph>
<glyph name="VowelEe.gm" format="2">
  <advance width="1106"/>
  <unicode hex="0A0F"/>
  <anchor x="1263" y="1351" name="top1"/>
  <outline>
    <contour>
      <point x="629" y="-14" type="curve" smooth="yes"/>
      <point x="773" y="-14"/>
      <point x="884" y="21"/>
      <point x="972" y="70" type="curve"/>
      <point x="981" y="118" type="line"/>
      <point x="890" y="62"/>
      <point x="775" y="22"/>
      <point x="629" y="22" type="curve" smooth="yes"/>
      <point x="373" y="22"/>
      <point x="196" y="160"/>
      <point x="196" y="410" type="curve"/>
      <point x="196" y="510" type="line"/>
      <point x="169" y="472" type="line"/>
      <point x="384" y="569"/>
      <point x="655" y="631"/>
      <point x="923" y="660" type="curve"/>
      <point x="923" y="1177" type="line"/>
      <point x="886" y="1177" type="line"/>
      <point x="886" y="687" type="line"/>
      <point x="765" y="672"/>
      <point x="646" y="652"/>
      <point x="533" y="625" type="curve"/>
      <point x="520" y="622" type="line"/>
      <point x="390" y="592"/>
      <point x="269" y="554"/>
      <point x="159" y="506" type="curve"/>
      <point x="159" y="410" type="line"/>
      <point x="159" y="138"/>
      <point x="350" y="-14"/>
    </contour>
    <contour>
      <point x="524" y="604" type="line"/>
      <point x="547" y="606" type="line"/>
      <point x="586" y="627" type="line"/>
      <point x="324" y="646"/>
      <point x="206" y="784"/>
      <point x="206" y="973" type="curve" smooth="yes"/>
      <point x="206" y="1175" type="line"/>
      <point x="169" y="1175" type="line"/>
      <point x="169" y="973" type="line" smooth="yes"/>
      <point x="169" y="774"/>
      <point x="295" y="637"/>
      <point x="518" y="608" type="curve"/>
    </contour>
    <contour>
      <point x="26" y="1159" type="line"/>
      <point x="186" y="1159" type="line"/>
      <point x="188" y="1159" type="line"/>
      <point x="904" y="1159" type="line"/>
      <point x="906" y="1159" type="line"/>
      <point x="1097" y="1159" type="line"/>
      <point x="1097" y="1193" type="line"/>
      <point x="26" y="1193" type="line"/>
    </contour>
    <contour>
      <point x="888" y="1180" type="line"/>
      <point x="923" y="1180" type="line"/>
      <point x="860" y="1518"/>
      <point x="711" y="1663"/>
      <point x="364" y="1663" type="curve" smooth="yes"/>
      <point x="309" y="1663"/>
      <point x="271" y="1660"/>
      <point x="212" y="1654" type="curve"/>
      <point x="205" y="1619" type="line"/>
      <point x="261" y="1626"/>
      <point x="311" y="1629"/>
      <point x="365" y="1629" type="curve" smooth="yes"/>
      <point x="684" y="1629"/>
      <point x="824" y="1498"/>
      <point x="885" y="1195" type="curve" smooth="yes"/>
    </contour>
    <component base="_cap.shiro_left"/>
    <component base="_cap.shiro_right" xOffset="909"/>
  </outline>
</glyph>
<glyph name="VowelOo.gm" format="2">
  <advance width="1222"/>
  <unicode hex="0A13"/>
  <outline>
    <contour>
      <point x="676" y="-23" type="curve" smooth="yes"/>
      <point x="932" y="-23"/>
      <point x="1037" y="111"/>
      <point x="1037" y="310" type="curve" smooth="yes"/>
      <point x="1037" y="314" type="line" smooth="yes"/>
      <point x="1037" y="509"/>
      <point x="917" y="644"/>
      <point x="708" y="644" type="curve"/>
      <point x="742" y="627" type="line"/>
      <point x="742" y="637" type="line"/>
      <point x="912" y="637"/>
      <point x="1075" y="785"/>
      <point x="1075" y="1073" type="curve" smooth="yes"/>
      <point x="1075" y="1168" type="line"/>
      <point x="1037" y="1168" type="line"/>
      <point x="1037" y="1075" type="line" smooth="yes"/>
      <point x="1037" y="804"/>
      <point x="899" y="655"/>
      <point x="673" y="655" type="curve" smooth="yes"/>
      <point x="210" y="655" type="line"/>
      <point x="210" y="621" type="line"/>
      <point x="676" y="621" type="line"/>
      <point x="883" y="621"/>
      <point x="999" y="499"/>
      <point x="999" y="315" type="curve" smooth="yes"/>
      <point x="999" y="312" type="line" smooth="yes"/>
      <point x="999" y="130"/>
      <point x="907" y="13"/>
      <point x="675" y="13" type="curve" smooth="yes"/>
      <point x="388" y="13"/>
      <point x="226" y="174"/>
      <point x="226" y="562" type="curve" smooth="yes"/>
      <point x="226" y="1104" type="line" smooth="yes"/>
      <point x="226" y="1482"/>
      <point x="411" y="1639"/>
      <point x="726" y="1639" type="curve" smooth="yes"/>
      <point x="812" y="1639"/>
      <point x="883" y="1626"/>
      <point x="950" y="1605" type="curve"/>
      <point x="943" y="1641" type="line"/>
      <point x="877" y="1662"/>
      <point x="803" y="1674"/>
      <point x="726" y="1674" type="curve" smooth="yes"/>
      <point x="389" y="1674"/>
      <point x="189" y="1505"/>
      <point x="189" y="1104" type="curve"/>
      <point x="189" y="562" type="line" smooth="yes"/>
      <point x="189" y="146"/>
      <point x="365" y="-23"/>
    </contour>
    <contour>
      <point x="25" y="1159" type="line"/>
      <point x="217" y="1159" type="line"/>
      <point x="218" y="1159" type="line"/>
      <point x="1055" y="1159" type="line"/>
      <point x="1057" y="1159" type="line"/>
      <point x="1211" y="1159" type="line"/>
      <point x="1211" y="1193" type="line"/>
      <point x="25" y="1193" type="line"/>
    </contour>
    <component base="_cap.shiro_left"/>
    <component base="_cap.shiro_right" xOffset="1030"/>
  </outline>
</glyph>
<glyph name="Ka.gm" format="2">
  <advance width="1182"/>
  <unicode hex="0A15"/>
  <anchor x="1335" y="100" name="bottom"/>
  <anchor x="1095" y="100" name="bottom1"/>
  <anchor x="1134" y="1200" name="top"/>
  <outline>
    <contour>
      <point x="19" y="1159" type="line"/>
      <point x="1170" y="1159" type="line"/>
      <point x="1170" y="1193" type="line"/>
      <point x="19" y="1193" type="line"/>
    </contour>
    <contour>
      <point x="994" y="0" type="line"/>
      <point x="1031" y="0" type="line"/>
      <point x="1007" y="143" type="line" smooth="yes"/>
      <point x="977" y="321"/>
      <point x="931" y="478"/>
      <point x="860" y="607" type="curve"/>
      <point x="858" y="611" type="line"/>
      <point x="769" y="765"/>
      <point x="652" y="913"/>
      <point x="433" y="913" type="curve" smooth="yes"/>
      <point x="231" y="913"/>
      <point x="116" y="796"/>
      <point x="116" y="591" type="curve" smooth="yes"/>
      <point x="116" y="573" type="line" smooth="yes"/>
      <point x="116" y="368"/>
      <point x="232" y="254"/>
      <point x="433" y="254" type="curve" smooth="yes"/>
      <point x="640" y="254"/>
      <point x="763" y="394"/>
      <point x="858" y="565" type="curve"/>
      <point x="860" y="568" type="line"/>
      <point x="938" y="733"/>
      <point x="988" y="899"/>
      <point x="1009" y="1041" type="curve" smooth="yes"/>
      <point x="1029" y="1178" type="line"/>
      <point x="991" y="1178" type="line"/>
      <point x="972" y="1047" type="line" smooth="yes"/>
      <point x="946" y="867"/>
      <point x="902" y="758"/>
      <point x="837" y="610" type="curve"/>
      <point x="837" y="609" type="line"/>
      <point x="739" y="432"/>
      <point x="621" y="289"/>
      <point x="434" y="289" type="curve" smooth="yes"/>
      <point x="254" y="289"/>
      <point x="154" y="394"/>
      <point x="154" y="574" type="curve" smooth="yes"/>
      <point x="154" y="591" type="line" smooth="yes"/>
      <point x="154" y="771"/>
      <point x="253" y="878"/>
      <point x="434" y="878" type="curve" smooth="yes"/>
      <point x="639" y="878"/>
      <point x="756" y="725"/>
      <point x="837" y="565" type="curve"/>
      <point x="838" y="564" type="line"/>
      <point x="900" y="456"/>
      <point x="944" y="298"/>
      <point x="970" y="144" type="curve" smooth="yes"/>
    </contour>
    <component base="_cap.shiro_left"/>
    <component base="_cap.shiro_right" xOffset="985"/>
  </outline>
</glyph>
<glyph name="Kha.gm" format="2">
  <advance width="1212"/>
  <unicode hex="0A16"/>
  <anchor x="1312" y="100" name="bottom"/>
  <anchor x="1120" y="100" name="bottom1"/>
  <anchor x="1112" y="1200" name="top"/>
  <outline>
    <contour>
      <point x="590" y="229" type="curve" smooth="yes"/>
      <point x="755" y="229"/>
      <point x="881" y="278"/>
      <point x="948" y="317" type="curve"/>
      <point x="970" y="363" type="line"/>
      <point x="982" y="363" type="line"/>
      <point x="980" y="380" type="line"/>
      <point x="899" y="317"/>
      <point x="753" y="264"/>
      <point x="590" y="264" type="curve" smooth="yes"/>
      <point x="383" y="264"/>
      <point x="239" y="346"/>
      <point x="176" y="423" type="curve"/>
      <point x="181" y="389" type="line"/>
      <point x="232" y="508"/>
      <point x="263" y="678"/>
      <point x="263" y="939" type="curve" smooth="yes"/>
      <point x="263" y="1015"/>
      <point x="261" y="1101"/>
      <point x="255" y="1193" type="curve"/>
      <point x="31" y="1193" type="line"/>
      <point x="31" y="1159" type="line"/>
      <point x="220" y="1159" type="line"/>
      <point x="225" y="1084"/>
      <point x="226" y="1009"/>
      <point x="226" y="940" type="curve" smooth="yes"/>
      <point x="226" y="691"/>
      <point x="199" y="528"/>
      <point x="146" y="400" type="curve"/>
      <point x="243" y="295"/>
      <point x="395" y="229"/>
    </contour>
    <contour>
      <point x="239" y="734" type="line"/>
      <point x="989" y="734" type="line"/>
      <point x="989" y="768" type="line"/>
      <point x="239" y="767" type="line"/>
    </contour>
    <component base="_danda" xOffset="787"/>
    <component base="_cap.shiro_left"/>
  </outline>
</glyph>
<glyph name="Ga.gm" format="2">
  <advance width="1492"/>
  <unicode hex="0A17"/>
  <anchor x="1592" y="100" name="bottom"/>
  <anchor x="1359" y="100" name="bottom1"/>
  <anchor x="1392" y="1200" name="top"/>
  <outline>
    <contour>
      <point x="544" y="-18" type="curve" smooth="yes"/>
      <point x="736" y="-18"/>
      <point x="843" y="93"/>
      <point x="843" y="275" type="curve" smooth="yes"/>
      <point x="843" y="1177" type="line"/>
      <point x="806" y="1177" type="line"/>
      <point x="806" y="748" type="line"/>
      <point x="806" y="746" type="line"/>
      <point x="806" y="275" type="line" smooth="yes"/>
      <point x="806" y="114"/>
      <point x="714" y="17"/>
      <point x="544" y="17" type="curve" smooth="yes"/>
      <point x="300" y="17"/>
      <point x="172" y="179"/>
      <point x="172" y="411" type="curve" smooth="yes"/>
      <point x="172" y="439" type="line" smooth="yes"/>
      <point x="172" y="620"/>
      <point x="257" y="730"/>
      <point x="459" y="730" type="curve" smooth="yes"/>
      <point x="821" y="730" type="line"/>
      <point x="821" y="764" type="line"/>
      <point x="459" y="764" type="line" smooth="yes"/>
      <point x="232" y="764"/>
      <point x="134" y="642"/>
      <point x="134" y="439" type="curve" smooth="yes"/>
      <point x="134" y="411" type="line" smooth="yes"/>
      <point x="134" y="157"/>
      <point x="278" y="-18"/>
    </contour>
    <contour>
      <point x="17" y="1159" type="line"/>
      <point x="1336" y="1159" type="line"/>
      <point x="1336" y="1193" type="line"/>
      <point x="17" y="1193" type="line"/>
    </contour>
    <component base="_danda" xOffset="1067"/>
    <component base="_cap.shiro_left"/>
  </outline>
</glyph>
<glyph name="Gha.gm" format="2">
  <advance width="1453"/>
  <unicode hex="0A18"/>
  <anchor x="1553" y="100" name="bottom"/>
  <anchor x="1250" y="100" name="bottom1"/>
  <anchor x="1353" y="1200" name="top"/>
  <outline>
    <contour>
      <point x="474" y="246" type="curve" smooth="yes"/>
      <point x="590" y="246"/>
      <point x="679" y="295"/>
      <point x="715" y="334" type="curve"/>
      <point x="740" y="395" type="line"/>
      <point x="734" y="401" type="line"/>
      <point x="726" y="395" type="line"/>
      <point x="685" y="333"/>
      <point x="588" y="281"/>
      <point x="477" y="281" type="curve" smooth="yes"/>
      <point x="335" y="281"/>
      <point x="221" y="347"/>
      <point x="170" y="432" type="curve"/>
      <point x="176" y="388" type="line"/>
      <point x="227" y="511"/>
      <point x="258" y="678"/>
      <point x="258" y="939" type="curve" smooth="yes"/>
      <point x="258" y="1015"/>
      <point x="256" y="1101"/>
      <point x="250" y="1193" type="curve"/>
      <point x="27" y="1193" type="line"/>
      <point x="27" y="1159" type="line"/>
      <point x="215" y="1159" type="line"/>
      <point x="220" y="1084"/>
      <point x="222" y="1009"/>
      <point x="222" y="940" type="curve" smooth="yes"/>
      <point x="222" y="691"/>
      <point x="194" y="528"/>
      <point x="141" y="400" type="curve"/>
      <point x="219" y="298"/>
      <point x="333" y="246"/>
    </contour>
    <contour>
      <point x="994" y="245" type="curve" smooth="yes"/>
      <point x="1101" y="245"/>
      <point x="1176" y="283"/>
      <point x="1200" y="301" type="curve"/>
      <point x="1220" y="340" type="line"/>
      <point x="1225" y="340" type="line"/>
      <point x="1221" y="355" type="line"/>
      <point x="1184" y="320"/>
      <point x="1105" y="280"/>
      <point x="995" y="280" type="curve" smooth="yes"/>
      <point x="862" y="280"/>
      <point x="783" y="334"/>
      <point x="752" y="401" type="curve"/>
      <point x="724" y="386" type="line"/>
      <point x="754" y="315"/>
      <point x="842" y="245"/>
    </contour>
    <contour>
      <point x="754" y="1186" type="line"/>
      <point x="717" y="1170" type="line"/>
      <point x="717" y="982" type="line"/>
      <point x="717" y="803"/>
      <point x="717" y="560"/>
      <point x="718" y="371" type="curve"/>
      <point x="753" y="379" type="line"/>
      <point x="753" y="596"/>
      <point x="754" y="805"/>
      <point x="754" y="984" type="curve"/>
    </contour>
    <component base="_danda" xOffset="1028"/>
    <component base="_cap.shiro_left"/>
  </outline>
</glyph>
<glyph name="Nga.gm" format="2">
  <advance width="1164"/>
  <unicode hex="0A19"/>
  <anchor x="1115" y="100" name="bottom"/>
  <anchor x="1103" y="90" name="bottom1"/>
  <anchor x="1065" y="1200" name="top"/>
  <outline>
    <contour>
      <point x="17" y="1159" type="line"/>
      <point x="213" y="1159" type="line"/>
      <point x="215" y="1159" type="line"/>
      <point x="1143" y="1159" type="line"/>
      <point x="1143" y="1193" type="line"/>
      <point x="17" y="1193" type="line"/>
    </contour>
    <contour>
      <point x="480" y="22" type="curve" smooth="yes"/>
      <point x="688" y="22"/>
      <point x="810" y="95"/>
      <point x="879" y="164" type="curve"/>
      <point x="879" y="167" type="line"/>
      <point x="965" y="263"/>
      <point x="1011" y="389"/>
      <point x="1011" y="522" type="curve" smooth="yes"/>
      <point x="1011" y="529" type="line" smooth="yes"/>
      <point x="1011" y="734"/>
      <point x="886" y="847"/>
      <point x="626" y="847" type="curve" smooth="yes"/>
      <point x="233" y="847" type="line"/>
      <point x="233" y="1180" type="line"/>
      <point x="196" y="1180" type="line"/>
      <point x="196" y="813" type="line"/>
      <point x="627" y="813" type="line" smooth="yes"/>
      <point x="864" y="813"/>
      <point x="973" y="711"/>
      <point x="973" y="529" type="curve" smooth="yes"/>
      <point x="973" y="523" type="line" smooth="yes"/>
      <point x="973" y="402"/>
      <point x="935" y="287"/>
      <point x="861" y="205" type="curve"/>
      <point x="860" y="204" type="line"/>
      <point x="791" y="126"/>
      <point x="675" y="57"/>
      <point x="482" y="57" type="curve" smooth="yes"/>
      <point x="289" y="57"/>
      <point x="187" y="132"/>
      <point x="187" y="256" type="curve" smooth="yes"/>
      <point x="187" y="262" type="line" smooth="yes"/>
      <point x="187" y="384"/>
      <point x="270" y="457"/>
      <point x="422" y="457" type="curve" smooth="yes"/>
      <point x="608" y="457"/>
      <point x="743" y="374"/>
      <point x="858" y="169" type="curve"/>
      <point x="882" y="199" type="line"/>
      <point x="771" y="399"/>
      <point x="629" y="492"/>
      <point x="421" y="492" type="curve" smooth="yes"/>
      <point x="244" y="492"/>
      <point x="149" y="403"/>
      <point x="149" y="263" type="curve" smooth="yes"/>
      <point x="149" y="255" type="line" smooth="yes"/>
      <point x="149" y="113"/>
      <point x="262" y="22"/>
    </contour>
    <contour>
      <point x="980" y="-82" type="line"/>
      <point x="1023" y="-82" type="line"/>
      <point x="884" y="197" type="line"/>
      <point x="857" y="167" type="line"/>
    </contour>
    <component base="_cap.shiro_left"/>
    <component base="_cap.shiro_right" xOffset="967"/>
  </outline>
</glyph>
<glyph name="Ca.gm" format="2">
  <advance width="1224"/>
  <unicode hex="0A1A"/>
  <anchor x="1191" y="100" name="bottom"/>
  <anchor x="1165" y="100" name="bottom1"/>
  <anchor x="1128" y="1200" name="top"/>
  <outline>
    <contour>
      <point x="648" y="-18" type="curve" smooth="yes"/>
      <point x="898" y="-18"/>
      <point x="1023" y="110"/>
      <point x="1023" y="353" type="curve" smooth="yes"/>
      <point x="1023" y="1171" type="line"/>
      <point x="986" y="1171" type="line"/>
      <point x="986" y="681" type="line"/>
      <point x="986" y="680" type="line"/>
      <point x="986" y="355" type="line" smooth="yes"/>
      <point x="986" y="133"/>
      <point x="875" y="18"/>
      <point x="648" y="18" type="curve" smooth="yes"/>
      <point x="370" y="18"/>
      <point x="211" y="204"/>
      <point x="211" y="536" type="curve" smooth="yes"/>
      <point x="211" y="961" type="line"/>
      <point x="174" y="941" type="line"/>
      <point x="174" y="535" type="line" smooth="yes"/>
      <point x="174" y="182"/>
      <point x="347" y="-18"/>
    </contour>
    <contour>
      <point x="192" y="663" type="line"/>
      <point x="1007" y="663" type="line"/>
      <point x="1007" y="697" type="line"/>
      <point x="192" y="697" type="line"/>
    </contour>
    <contour>
      <point x="17" y="1159" type="line"/>
      <point x="1219" y="1159" type="line"/>
      <point x="1219" y="1193" type="line"/>
      <point x="17" y="1193" type="line"/>
    </contour>
    <component base="_cap.shiro_left"/>
    <component base="_cap.shiro_right" xOffset="1027"/>
  </outline>
</glyph>
<glyph name="Cha.gm" format="2">
  <advance width="1225"/>
  <unicode hex="0A1B"/>
  <anchor x="1155" y="100" name="bottom"/>
  <anchor x="1143" y="100" name="bottom1"/>
  <anchor x="1116" y="1200" name="top"/>
  <outline>
    <contour>
      <point x="631" y="-10" type="line"/>
      <point x="803" y="-10" type="line" smooth="yes"/>
      <point x="979" y="-10"/>
      <point x="1086" y="88"/>
      <point x="1086" y="245" type="curve" smooth="yes"/>
      <point x="1086" y="251" type="line" smooth="yes"/>
      <point x="1086" y="408"/>
      <point x="998" y="501"/>
      <point x="805" y="501" type="curve" smooth="yes"/>
      <point x="440" y="501" type="line" smooth="yes"/>
      <point x="317" y="501"/>
      <point x="203" y="553"/>
      <point x="203" y="677" type="curve" smooth="yes"/>
      <point x="203" y="788"/>
      <point x="280" y="854"/>
      <point x="428" y="854" type="curve" smooth="yes"/>
      <point x="1010" y="854" type="line"/>
      <point x="1010" y="1180" type="line"/>
      <point x="973" y="1180" type="line"/>
      <point x="973" y="888" type="line"/>
      <point x="425" y="888" type="line" smooth="yes"/>
      <point x="259" y="888"/>
      <point x="164" y="809"/>
      <point x="164" y="677" type="curve" smooth="yes"/>
      <point x="164" y="554"/>
      <point x="264" y="479"/>
      <point x="435" y="479" type="curve"/>
      <point x="435" y="474" type="line"/>
      <point x="444" y="467" type="line"/>
      <point x="806" y="467" type="line" smooth="yes"/>
      <point x="974" y="467"/>
      <point x="1048" y="384"/>
      <point x="1048" y="251" type="curve" smooth="yes"/>
      <point x="1048" y="245" type="line" smooth="yes"/>
      <point x="1048" y="107"/>
      <point x="954" y="24"/>
      <point x="802" y="24" type="curve" smooth="yes"/>
      <point x="631" y="24" type="line"/>
    </contour>
    <contour>
      <point x="464" y="-10" type="curve"/>
      <point x="633" y="-10" type="line"/>
      <point x="633" y="24" type="line"/>
      <point x="461" y="24" type="line" smooth="yes"/>
      <point x="301" y="24"/>
      <point x="199" y="101"/>
      <point x="199" y="245" type="curve" smooth="yes"/>
      <point x="199" y="251" type="line" smooth="yes"/>
      <point x="199" y="383"/>
      <point x="290" y="467"/>
      <point x="436" y="467" type="curve" smooth="yes"/>
      <point x="482" y="467" type="line"/>
      <point x="482" y="493" type="line"/>
      <point x="432" y="493" type="line" smooth="yes"/>
      <point x="264" y="493"/>
      <point x="161" y="404"/>
      <point x="161" y="251" type="curve" smooth="yes"/>
      <point x="161" y="245" type="line" smooth="yes"/>
      <point x="161" y="80"/>
      <point x="277" y="-10"/>
    </contour>
    <contour>
      <point x="612" y="6" type="line"/>
      <point x="649" y="6" type="line"/>
      <point x="649" y="484" type="line"/>
      <point x="612" y="484" type="line"/>
    </contour>
    <contour>
      <point x="31" y="1159" type="line"/>
      <point x="991" y="1159" type="line"/>
      <point x="993" y="1159" type="line"/>
      <point x="1199" y="1159" type="line"/>
      <point x="1199" y="1193" type="line"/>
      <point x="31" y="1193" type="line"/>
    </contour>
    <component base="_cap.shiro_left"/>
    <component base="_cap.shiro_right" xOffset="1028"/>
  </outline>
</glyph>
<glyph name="Ja.gm" format="2">
  <advance width="1183"/>
  <unicode hex="0A1C"/>
  <anchor x="1283" y="100" name="bottom"/>
  <anchor x="1104" y="100" name="bottom1"/>
  <anchor x="1083" y="1200" name="top"/>
  <outline>
    <contour>
      <point x="181" y="0" type="curve"/>
      <point x="218" y="0" type="line"/>
      <point x="237" y="177"/>
      <point x="247" y="383"/>
      <point x="247" y="569" type="curve" smooth="yes"/>
      <point x="247" y="704"/>
      <point x="239" y="841"/>
      <point x="225" y="951" type="curve"/>
      <point x="190" y="933" type="line"/>
      <point x="202" y="832"/>
      <point x="210" y="701"/>
      <point x="210" y="570" type="curve" smooth="yes"/>
      <point x="210" y="384"/>
      <point x="200" y="178"/>
    </contour>
    <contour>
      <point x="227" y="637" type="line"/>
      <point x="959" y="637" type="line"/>
      <point x="959" y="671" type="line"/>
      <point x="227" y="671" type="line"/>
    </contour>
    <contour>
      <point x="29" y="1159" type="line"/>
      <point x="1034" y="1159" type="line"/>
      <point x="1033" y="1193" type="line"/>
      <point x="29" y="1193" type="line"/>
    </contour>
    <component base="_danda" xOffset="758"/>
    <component base="_cap.shiro_left"/>
  </outline>
</glyph>
<glyph name="Jha.gm" format="2">
  <advance width="1154"/>
  <unicode hex="0A1D"/>
  <anchor x="962" y="10" name="bottom"/>
  <anchor x="1088" y="25" name="bottom1"/>
  <anchor x="1102" y="1200" name="top"/>
  <outline>
    <contour>
      <point x="578" y="44" type="curve" smooth="yes"/>
      <point x="872" y="44"/>
      <point x="1001" y="147"/>
      <point x="1001" y="361" type="curve" smooth="yes"/>
      <point x="1001" y="365" type="line" smooth="yes"/>
      <point x="1001" y="545"/>
      <point x="894" y="656"/>
      <point x="683" y="672" type="curve"/>
      <point x="683" y="690" type="line"/>
      <point x="572" y="690" type="line"/>
      <point x="444" y="689" type="line"/>
      <point x="444" y="676" type="line"/>
      <point x="340" y="675"/>
      <point x="227" y="650"/>
      <point x="156" y="628" type="curve"/>
      <point x="148" y="588" type="line"/>
      <point x="260" y="625"/>
      <point x="396" y="654"/>
      <point x="571" y="654" type="curve" smooth="yes"/>
      <point x="869" y="654"/>
      <point x="963" y="526"/>
      <point x="963" y="365" type="curve" smooth="yes"/>
      <point x="963" y="362" type="line" smooth="yes"/>
      <point x="963" y="170"/>
      <point x="849" y="79"/>
      <point x="578" y="79" type="curve" smooth="yes"/>
      <point x="427" y="79"/>
      <point x="281" y="114"/>
      <point x="158" y="179" type="curve"/>
      <point x="166" y="131" type="line"/>
      <point x="277" y="75"/>
      <point x="422" y="44"/>
    </contour>
    <contour>
      <point x="602" y="-190" type="line"/>
      <point x="659" y="-191" type="line"/>
      <point x="604" y="-144"/>
      <point x="501" y="-62"/>
      <point x="332" y="71" type="curve"/>
      <point x="341" y="91" type="line"/>
      <point x="246" y="102" type="line"/>
    </contour>
    <contour>
      <point x="517" y="668" type="curve"/>
      <point x="556" y="689" type="line"/>
      <point x="339" y="689"/>
      <point x="177" y="819"/>
      <point x="177" y="1024" type="curve" smooth="yes"/>
      <point x="177" y="1180" type="line"/>
      <point x="139" y="1180" type="line"/>
      <point x="139" y="1023" type="line" smooth="yes"/>
      <point x="139" y="809"/>
      <point x="302" y="669"/>
    </contour>
    <contour>
      <point x="10" y="1159" type="line"/>
      <point x="156" y="1159" type="line"/>
      <point x="158" y="1159" type="line"/>
      <point x="980" y="1159" type="line"/>
      <point x="982" y="1159" type="line"/>
      <point x="1138" y="1159" type="line"/>
      <point x="1138" y="1193" type="line"/>
      <point x="10" y="1193" type="line"/>
    </contour>
    <contour>
      <point x="997" y="1023" type="curve" smooth="yes"/>
      <point x="997" y="1180" type="line"/>
      <point x="960" y="1180" type="line"/>
      <point x="960" y="1024" type="line" smooth="yes"/>
      <point x="960" y="809"/>
      <point x="803" y="690"/>
      <point x="580" y="690" type="curve"/>
      <point x="620" y="668" type="line"/>
      <point x="838" y="668"/>
      <point x="997" y="799"/>
    </contour>
    <component base="_cap.shiro_left"/>
    <component base="_cap.shiro_right" xOffset="957"/>
  </outline>
</glyph>
<glyph name="Nya.gm" format="2">
  <advance width="1149"/>
  <unicode hex="0A1E"/>
  <anchor x="1135" y="85" name="bottom"/>
  <anchor x="1178" y="100" name="bottom1"/>
  <anchor x="1072" y="1200" name="top"/>
  <outline>
    <contour>
      <point x="377" y="401" type="curve"/>
      <point x="947" y="401" type="line"/>
      <point x="947" y="435" type="line"/>
      <point x="377" y="435" type="line" smooth="yes"/>
      <point x="244" y="435"/>
      <point x="162" y="485"/>
      <point x="162" y="624" type="curve" smooth="yes"/>
      <point x="162" y="745"/>
      <point x="237" y="797"/>
      <point x="381" y="797" type="curve" smooth="yes"/>
      <point x="966" y="797" type="line"/>
      <point x="966" y="1176" type="line"/>
      <point x="929" y="1176" type="line"/>
      <point x="929" y="831" type="line"/>
      <point x="381" y="831" type="line" smooth="yes"/>
      <point x="216" y="831"/>
      <point x="123" y="764"/>
      <point x="123" y="624" type="curve" smooth="yes"/>
      <point x="123" y="465"/>
      <point x="222" y="401"/>
    </contour>
    <contour>
      <point x="855" y="-12" type="curve" smooth="yes"/>
      <point x="894" y="-12"/>
      <point x="955" y="-6"/>
      <point x="1004" y="6" type="curve"/>
      <point x="1012" y="42" type="line"/>
      <point x="959" y="30"/>
      <point x="895" y="24"/>
      <point x="854" y="24" type="curve" smooth="yes"/>
      <point x="635" y="24"/>
      <point x="464" y="121"/>
      <point x="423" y="420" type="curve"/>
      <point x="382" y="423" type="line"/>
      <point x="435" y="95"/>
      <point x="615" y="-12"/>
    </contour>
    <contour>
      <point x="369" y="806" type="curve"/>
      <point x="406" y="810" type="line"/>
      <point x="335" y="896"/>
      <point x="263" y="1033"/>
      <point x="224" y="1178" type="curve"/>
      <point x="183" y="1178" type="line"/>
      <point x="223" y="1032"/>
      <point x="296" y="893"/>
    </contour>
    <contour>
      <point x="20" y="1159" type="line"/>
      <point x="203" y="1159" type="line"/>
      <point x="211" y="1159" type="line"/>
      <point x="942" y="1159" type="line"/>
      <point x="952" y="1159" type="line"/>
      <point x="1125" y="1159" type="line"/>
      <point x="1125" y="1193" type="line"/>
      <point x="20" y="1193" type="line"/>
    </contour>
    <component base="_cap.shiro_left"/>
    <component base="_cap.shiro_right" xOffset="952"/>
  </outline>
</glyph>
<glyph name="Tta.gm" format="2">
  <advance width="1082"/>
  <unicode hex="0A1F"/>
  <anchor x="1119" y="100" name="bottom"/>
  <anchor x="1131" y="100" name="bottom1"/>
  <anchor x="1007" y="1200" name="top"/>
  <outline>
    <contour>
      <point x="629" y="-8" type="curve" smooth="yes"/>
      <point x="768" y="-8"/>
      <point x="876" y="27"/>
      <point x="961" y="76" type="curve"/>
      <point x="969" y="124" type="line"/>
      <point x="878" y="66"/>
      <point x="766" y="28"/>
      <point x="629" y="28" type="curve" smooth="yes"/>
      <point x="353" y="28"/>
      <point x="188" y="168"/>
      <point x="188" y="433" type="curve"/>
      <point x="188" y="577" type="line"/>
      <point x="161" y="544" type="line"/>
      <point x="402" y="668"/>
      <point x="628" y="730"/>
      <point x="901" y="756" type="curve"/>
      <point x="901" y="1177" type="line"/>
      <point x="864" y="1177" type="line"/>
      <point x="864" y="762" type="line"/>
      <point x="893" y="791" type="line"/>
      <point x="574" y="756"/>
      <point x="366" y="689"/>
      <point x="151" y="578" type="curve"/>
      <point x="151" y="431" type="line"/>
      <point x="151" y="146"/>
      <point x="330" y="-8"/>
    </contour>
    <contour>
      <point x="12" y="1159" type="line"/>
      <point x="1064" y="1159" type="line"/>
      <point x="1064" y="1193" type="line"/>
      <point x="12" y="1193" type="line"/>
    </contour>
    <component base="_cap.shiro_left"/>
    <component base="_cap.shiro_right" xOffset="895"/>
  </outline>
</glyph>
<glyph name="Ttha.gm" format="2">
  <advance width="1175"/>
  <unicode hex="0A20"/>
  <anchor x="1117" y="100" name="bottom"/>
  <anchor x="1101" y="100" name="bottom1"/>
  <anchor x="715" y="1200" name="top"/>
  <outline>
    <contour>
      <point x="589" y="-23" type="curve" smooth="yes"/>
      <point x="882" y="-23"/>
      <point x="1041" y="118"/>
      <point x="1041" y="378" type="curve" smooth="yes"/>
      <point x="1041" y="417" type="line" smooth="yes"/>
      <point x="1041" y="646"/>
      <point x="889" y="799"/>
      <point x="590" y="856" type="curve"/>
      <point x="291" y="796"/>
      <point x="137" y="645"/>
      <point x="137" y="417" type="curve" smooth="yes"/>
      <point x="137" y="378" type="line" smooth="yes"/>
      <point x="137" y="118"/>
      <point x="296" y="-23"/>
    </contour>
    <contour>
      <point x="589" y="13" type="curve" smooth="yes"/>
      <point x="318" y="13"/>
      <point x="175" y="137"/>
      <point x="175" y="379" type="curve" smooth="yes"/>
      <point x="175" y="416" type="line" smooth="yes"/>
      <point x="175" y="625"/>
      <point x="312" y="758"/>
      <point x="590" y="818" type="curve"/>
      <point x="868" y="760"/>
      <point x="1003" y="628"/>
      <point x="1003" y="416" type="curve" smooth="yes"/>
      <point x="1003" y="379" type="line" smooth="yes"/>
      <point x="1003" y="137"/>
      <point x="859" y="13"/>
    </contour>
    <contour>
      <point x="572" y="838" type="line"/>
      <point x="609" y="838" type="line"/>
      <point x="609" y="1175" type="line"/>
      <point x="572" y="1175" type="line"/>
    </contour>
    <contour>
      <point x="19" y="1159" type="line"/>
      <point x="1159" y="1159" type="line"/>
      <point x="1159" y="1193" type="line"/>
      <point x="19" y="1193" type="line"/>
    </contour>
    <component base="_cap.shiro_left"/>
    <component base="_cap.shiro_right" xOffset="978"/>
  </outline>
</glyph>
<glyph name="Dda.gm" format="2">
  <advance width="1093"/>
  <unicode hex="0A21"/>
  <anchor x="1041" y="100" name="bottom"/>
  <anchor x="1036" y="100" name="bottom1"/>
  <anchor x="1046" y="1200" name="top"/>
  <outline>
    <contour>
      <point x="481" y="-18" type="curve" smooth="yes"/>
      <point x="791" y="-18"/>
      <point x="955" y="116"/>
      <point x="955" y="354" type="curve" smooth="yes"/>
      <point x="955" y="371" type="line" smooth="yes"/>
      <point x="955" y="576"/>
      <point x="848" y="728"/>
      <point x="655" y="730" type="curve"/>
      <point x="689" y="710" type="line"/>
      <point x="689" y="722" type="line"/>
      <point x="836" y="729"/>
      <point x="940" y="848"/>
      <point x="940" y="1057" type="curve" smooth="yes"/>
      <point x="940" y="1176" type="line"/>
      <point x="902" y="1176" type="line"/>
      <point x="902" y="1057" type="line" smooth="yes"/>
      <point x="902" y="877"/>
      <point x="825" y="742"/>
      <point x="623" y="742" type="curve" smooth="yes"/>
      <point x="208" y="742" type="line"/>
      <point x="208" y="708" type="line"/>
      <point x="624" y="708" type="line" smooth="yes"/>
      <point x="825" y="708"/>
      <point x="917" y="554"/>
      <point x="917" y="370" type="curve" smooth="yes"/>
      <point x="917" y="353" type="line" smooth="yes"/>
      <point x="917" y="137"/>
      <point x="770" y="17"/>
      <point x="481" y="17" type="curve" smooth="yes"/>
      <point x="267" y="17"/>
      <point x="141" y="85"/>
      <point x="141" y="205" type="curve" smooth="yes"/>
      <point x="141" y="210" type="line" smooth="yes"/>
      <point x="141" y="322"/>
      <point x="235" y="391"/>
      <point x="416" y="391" type="curve" smooth="yes"/>
      <point x="635" y="391"/>
      <point x="795" y="298"/>
      <point x="855" y="125" type="curve"/>
      <point x="879" y="141" type="line"/>
      <point x="825" y="320"/>
      <point x="652" y="426"/>
      <point x="415" y="426" type="curve" smooth="yes"/>
      <point x="212" y="426"/>
      <point x="103" y="342"/>
      <point x="103" y="211" type="curve" smooth="yes"/>
      <point x="103" y="205" type="line" smooth="yes"/>
      <point x="103" y="64"/>
      <point x="243" y="-18"/>
    </contour>
    <contour>
      <point x="17" y="1159" type="line"/>
      <point x="931" y="1159" type="line"/>
      <point x="933" y="1159" type="line"/>
      <point x="1091" y="1159" type="line"/>
      <point x="1091" y="1193" type="line"/>
      <point x="17" y="1193" type="line"/>
    </contour>
    <component base="_cap.shiro_left"/>
    <component base="_cap.shiro_right" xOffset="901"/>
  </outline>
</glyph>
<glyph name="Ddha.gm" format="2">
  <advance width="1159"/>
  <unicode hex="0A22"/>
  <anchor x="1154" y="89" name="bottom"/>
  <anchor x="1169" y="100" name="bottom1"/>
  <anchor x="1068" y="1200" name="top"/>
  <outline>
    <contour>
      <point x="705" y="-18" type="curve" smooth="yes"/>
      <point x="912" y="-18"/>
      <point x="1028" y="63"/>
      <point x="1028" y="202" type="curve" smooth="yes"/>
      <point x="1028" y="208" type="line" smooth="yes"/>
      <point x="1028" y="349"/>
      <point x="928" y="426"/>
      <point x="734" y="426" type="curve" smooth="yes"/>
      <point x="525" y="426"/>
      <point x="368" y="327"/>
      <point x="313" y="158" type="curve"/>
      <point x="337" y="141" type="line"/>
      <point x="396" y="301"/>
      <point x="539" y="391"/>
      <point x="734" y="391" type="curve" smooth="yes"/>
      <point x="903" y="391"/>
      <point x="990" y="327"/>
      <point x="990" y="208" type="curve" smooth="yes"/>
      <point x="990" y="203" type="line" smooth="yes"/>
      <point x="990" y="85"/>
      <point x="889" y="17"/>
      <point x="705" y="17" type="curve" smooth="yes"/>
      <point x="370" y="17"/>
      <point x="206" y="206"/>
      <point x="206" y="544" type="curve"/>
      <point x="206" y="1015" type="line"/>
      <point x="169" y="995" type="line"/>
      <point x="169" y="551" type="line" smooth="yes"/>
      <point x="169" y="177"/>
      <point x="354" y="-18"/>
    </contour>
    <contour>
      <point x="188" y="732" type="line"/>
      <point x="962" y="732" type="line"/>
      <point x="962" y="1177" type="line"/>
      <point x="925" y="1177" type="line"/>
      <point x="925" y="766" type="line"/>
      <point x="188" y="766" type="line"/>
    </contour>
    <contour>
      <point x="33" y="1159" type="line"/>
      <point x="1156" y="1159" type="line"/>
      <point x="1156" y="1193" type="line"/>
      <point x="33" y="1193" type="line"/>
    </contour>
    <component base="_cap.shiro_left"/>
    <component base="_cap.shiro_right" xOffset="962"/>
  </outline>
</glyph>
<glyph name="Nna.gm" format="2">
  <advance width="1104"/>
  <unicode hex="0A23"/>
  <anchor x="1141" y="100" name="bottom"/>
  <anchor x="1128" y="100" name="bottom1"/>
  <anchor x="1057" y="1200" name="top"/>
  <outline>
    <contour>
      <point x="615" y="-14" type="curve" smooth="yes"/>
      <point x="757" y="-14"/>
      <point x="889" y="17"/>
      <point x="992" y="73" type="curve"/>
      <point x="1000" y="121" type="line"/>
      <point x="886" y="56"/>
      <point x="753" y="21"/>
      <point x="615" y="21" type="curve" smooth="yes"/>
      <point x="333" y="21"/>
      <point x="170" y="141"/>
      <point x="170" y="351" type="curve" smooth="yes"/>
      <point x="170" y="423" type="line"/>
      <point x="150" y="388" type="line"/>
      <point x="324" y="443"/>
      <point x="485" y="480"/>
      <point x="683" y="502" type="curve"/>
      <point x="683" y="731" type="line"/>
      <point x="646" y="737" type="line"/>
      <point x="646" y="530" type="line"/>
      <point x="456" y="504"/>
      <point x="303" y="468"/>
      <point x="133" y="420" type="curve"/>
      <point x="133" y="347" type="line" smooth="yes"/>
      <point x="133" y="121"/>
      <point x="311" y="-14"/>
    </contour>
    <contour>
      <point x="861" y="704" type="curve" smooth="yes"/>
      <point x="979" y="704" type="line"/>
      <point x="979" y="737" type="line"/>
      <point x="861" y="737" type="line" smooth="yes"/>
      <point x="442" y="737"/>
      <point x="270" y="877"/>
      <point x="270" y="1101" type="curve" smooth="yes"/>
      <point x="270" y="1177" type="line"/>
      <point x="232" y="1177" type="line"/>
      <point x="232" y="1101" type="line" smooth="yes"/>
      <point x="232" y="855"/>
      <point x="421" y="704"/>
    </contour>
    <contour>
      <point x="10" y="1159" type="line"/>
      <point x="1093" y="1159" type="line"/>
      <point x="1093" y="1193" type="line"/>
      <point x="10" y="1193" type="line"/>
    </contour>
    <component base="_cap.shiro_left"/>
    <component base="_cap.shiro_right" xOffset="907"/>
  </outline>
</glyph>
<glyph name="Ta.gm" format="2">
  <advance width="1046"/>
  <unicode hex="0A24"/>
  <anchor x="962" y="100" name="bottom"/>
  <anchor x="993" y="100" name="bottom1"/>
  <anchor x="998" y="1200" name="top"/>
  <outline>
    <contour>
      <point x="20" y="1159" type="line"/>
      <point x="1034" y="1159" type="line"/>
      <point x="1034" y="1193" type="line"/>
      <point x="20" y="1193" type="line"/>
    </contour>
    <contour>
      <point x="490" y="-14" type="curve" smooth="yes"/>
      <point x="757" y="-14"/>
      <point x="901" y="107"/>
      <point x="901" y="330" type="curve" smooth="yes"/>
      <point x="901" y="343" type="line" smooth="yes"/>
      <point x="901" y="538"/>
      <point x="804" y="668"/>
      <point x="603" y="673" type="curve"/>
      <point x="635" y="652" type="line"/>
      <point x="635" y="664" type="line"/>
      <point x="787" y="671"/>
      <point x="893" y="796"/>
      <point x="893" y="1008" type="curve" smooth="yes"/>
      <point x="893" y="1176" type="line"/>
      <point x="855" y="1176" type="line"/>
      <point x="855" y="1008" type="line" smooth="yes"/>
      <point x="855" y="825"/>
      <point x="783" y="684"/>
      <point x="570" y="684" type="curve" smooth="yes"/>
      <point x="179" y="684" type="line"/>
      <point x="179" y="650" type="line"/>
      <point x="572" y="650" type="line" smooth="yes"/>
      <point x="779" y="650"/>
      <point x="863" y="513"/>
      <point x="863" y="342" type="curve"/>
      <point x="863" y="332" type="line" smooth="yes"/>
      <point x="863" y="128"/>
      <point x="733" y="21"/>
      <point x="490" y="21" type="curve" smooth="yes"/>
      <point x="346" y="21"/>
      <point x="205" y="56"/>
      <point x="86" y="121" type="curve"/>
      <point x="94" y="73" type="line"/>
      <point x="202" y="17"/>
      <point x="341" y="-14"/>
    </contour>
    <component base="_cap.shiro_left"/>
    <component base="_cap.shiro_right" xOffset="854"/>
  </outline>
</glyph>
<glyph name="Tha.gm" format="2">
  <advance width="1218"/>
  <unicode hex="0A25"/>
  <anchor x="1318" y="100" name="bottom"/>
  <anchor x="1108" y="100" name="bottom1"/>
  <anchor x="1117" y="1200" name="top"/>
  <outline>
    <contour>
      <point x="231" y="725" type="line"/>
      <point x="994" y="725" type="line"/>
      <point x="994" y="759" type="line"/>
      <point x="231" y="759" type="line"/>
    </contour>
    <contour>
      <point x="165" y="1159" type="line"/>
      <point x="232" y="1159" type="line"/>
      <point x="234" y="1159" type="line"/>
      <point x="992" y="1159" type="line"/>
      <point x="996" y="1159" type="line"/>
      <point x="1037" y="1159" type="line"/>
      <point x="1037" y="1193" type="line"/>
      <point x="165" y="1193" type="line"/>
    </contour>
    <contour>
      <point x="585" y="229" type="curve" smooth="yes"/>
      <point x="754" y="229"/>
      <point x="884" y="279"/>
      <point x="953" y="319" type="curve"/>
      <point x="976" y="366" type="line"/>
      <point x="987" y="366" type="line"/>
      <point x="986" y="383" type="line"/>
      <point x="902" y="318"/>
      <point x="753" y="264"/>
      <point x="585" y="264" type="curve" smooth="yes"/>
      <point x="378" y="264"/>
      <point x="234" y="344"/>
      <point x="171" y="423" type="curve"/>
      <point x="176" y="389" type="line"/>
      <point x="227" y="508"/>
      <point x="258" y="678"/>
      <point x="258" y="939" type="curve" smooth="yes"/>
      <point x="258" y="1015"/>
      <point x="256" y="1101"/>
      <point x="250" y="1193" type="curve"/>
      <point x="26" y="1193" type="line"/>
      <point x="26" y="1159" type="line"/>
      <point x="215" y="1159" type="line"/>
      <point x="220" y="1084"/>
      <point x="222" y="1009"/>
      <point x="222" y="940" type="curve" smooth="yes"/>
      <point x="222" y="691"/>
      <point x="194" y="528"/>
      <point x="141" y="400" type="curve"/>
      <point x="238" y="295"/>
      <point x="390" y="229"/>
    </contour>
    <component base="_danda" xOffset="793"/>
    <component base="_cap.shiro_left"/>
  </outline>
</glyph>
<glyph name="Da.gm" format="2">
  <advance width="1143"/>
  <unicode hex="0A26"/>
  <anchor x="1115" y="90" name="bottom"/>
  <anchor x="1165" y="100" name="bottom1"/>
  <anchor x="1076" y="1200" name="top"/>
  <outline>
    <contour>
      <point x="681" y="-14" type="curve" smooth="yes"/>
      <point x="814" y="-14"/>
      <point x="935" y="21"/>
      <point x="1016" y="81" type="curve"/>
      <point x="1024" y="129" type="line"/>
      <point x="939" y="60"/>
      <point x="811" y="21"/>
      <point x="681" y="21" type="curve" smooth="yes"/>
      <point x="374" y="21"/>
      <point x="214" y="172"/>
      <point x="214" y="470" type="curve" smooth="yes"/>
      <point x="214" y="643" type="line"/>
      <point x="214" y="646" type="line"/>
      <point x="214" y="950" type="line"/>
      <point x="177" y="932" type="line"/>
      <point x="177" y="469" type="line" smooth="yes"/>
      <point x="177" y="150"/>
      <point x="352" y="-14"/>
    </contour>
    <contour>
      <point x="197" y="622" type="line"/>
      <point x="971" y="622" type="line"/>
      <point x="971" y="1177" type="line"/>
      <point x="934" y="1177" type="line"/>
      <point x="934" y="656" type="line"/>
      <point x="197" y="656" type="line"/>
    </contour>
    <contour>
      <point x="20" y="1159" type="line"/>
      <point x="1125" y="1159" type="line"/>
      <point x="1125" y="1193" type="line"/>
      <point x="20" y="1193" type="line"/>
    </contour>
    <component base="_cap.shiro_left"/>
    <component base="_cap.shiro_right" xOffset="946"/>
  </outline>
</glyph>
<glyph name="Dha.gm" format="2">
  <advance width="1161"/>
  <unicode hex="0A27"/>
  <anchor x="1261" y="100" name="bottom"/>
  <anchor x="1080" y="100" name="bottom1"/>
  <anchor x="1061" y="1200" name="top"/>
  <outline>
    <contour>
      <point x="131" y="1159" type="line"/>
      <point x="1055" y="1159" type="line"/>
      <point x="1055" y="1193" type="line"/>
      <point x="131" y="1193" type="line"/>
    </contour>
    <contour>
      <point x="580" y="229" type="curve" smooth="yes"/>
      <point x="726" y="229"/>
      <point x="834" y="276"/>
      <point x="897" y="314" type="curve"/>
      <point x="919" y="360" type="line"/>
      <point x="931" y="360" type="line"/>
      <point x="929" y="377" type="line"/>
      <point x="851" y="315"/>
      <point x="726" y="264"/>
      <point x="580" y="264" type="curve" smooth="yes"/>
      <point x="378" y="264"/>
      <point x="237" y="344"/>
      <point x="176" y="424" type="curve"/>
      <point x="181" y="389" type="line"/>
      <point x="232" y="508"/>
      <point x="263" y="678"/>
      <point x="263" y="939" type="curve" smooth="yes"/>
      <point x="263" y="1015"/>
      <point x="261" y="1101"/>
      <point x="255" y="1193" type="curve"/>
      <point x="31" y="1193" type="line"/>
      <point x="31" y="1159" type="line"/>
      <point x="220" y="1159" type="line"/>
      <point x="225" y="1084"/>
      <point x="227" y="1009"/>
      <point x="227" y="940" type="curve" smooth="yes"/>
      <point x="227" y="691"/>
      <point x="199" y="528"/>
      <point x="146" y="400" type="curve"/>
      <point x="241" y="295"/>
      <point x="389" y="229"/>
    </contour>
    <component base="_danda" xOffset="736"/>
    <component base="_cap.shiro_left"/>
  </outline>
</glyph>
<glyph name="Pa.gm" format="2">
  <advance width="1159"/>
  <unicode hex="0A2A"/>
  <anchor x="1259" y="100" name="bottom"/>
  <anchor x="1075" y="100" name="bottom1"/>
  <anchor x="1059" y="1200" name="top"/>
  <outline>
    <contour>
      <point x="580" y="229" type="curve" smooth="yes"/>
      <point x="724" y="229"/>
      <point x="834" y="276"/>
      <point x="894" y="314" type="curve"/>
      <point x="916" y="360" type="line"/>
      <point x="928" y="360" type="line"/>
      <point x="926" y="377" type="line"/>
      <point x="851" y="315"/>
      <point x="725" y="264"/>
      <point x="580" y="264" type="curve" smooth="yes"/>
      <point x="378" y="264"/>
      <point x="237" y="344"/>
      <point x="176" y="424" type="curve"/>
      <point x="181" y="389" type="line"/>
      <point x="232" y="507"/>
      <point x="263" y="678"/>
      <point x="263" y="939" type="curve" smooth="yes"/>
      <point x="263" y="1015"/>
      <point x="261" y="1101"/>
      <point x="255" y="1193" type="curve"/>
      <point x="31" y="1193" type="line"/>
      <point x="31" y="1159" type="line"/>
      <point x="220" y="1159" type="line"/>
      <point x="225" y="1084"/>
      <point x="227" y="1009"/>
      <point x="227" y="940" type="curve" smooth="yes"/>
      <point x="227" y="691"/>
      <point x="199" y="528"/>
      <point x="146" y="400" type="curve"/>
      <point x="241" y="295"/>
      <point x="389" y="229"/>
    </contour>
    <component base="_danda" xOffset="734"/>
    <component base="_cap.shiro_left"/>
  </outline>
</glyph>
<glyph name="Pha.gm" format="2">
  <advance width="1106"/>
  <unicode hex="0A2B"/>
  <anchor x="1114" y="88" name="bottom"/>
  <anchor x="1146" y="100" name="bottom1"/>
  <anchor x="1016" y="1200" name="top"/>
  <outline>
    <contour>
      <point x="653" y="-18" type="curve" smooth="yes"/>
      <point x="880" y="-18"/>
      <point x="995" y="63"/>
      <point x="995" y="214" type="curve" smooth="yes"/>
      <point x="995" y="220" type="line" smooth="yes"/>
      <point x="995" y="363"/>
      <point x="888" y="446"/>
      <point x="697" y="446" type="curve" smooth="yes"/>
      <point x="468" y="446"/>
      <point x="314" y="320"/>
      <point x="276" y="145" type="curve"/>
      <point x="297" y="126" type="line"/>
      <point x="343" y="304"/>
      <point x="494" y="411"/>
      <point x="696" y="411" type="curve" smooth="yes"/>
      <point x="864" y="411"/>
      <point x="957" y="341"/>
      <point x="957" y="220" type="curve" smooth="yes"/>
      <point x="957" y="214" type="line" smooth="yes"/>
      <point x="957" y="86"/>
      <point x="856" y="17"/>
      <point x="653" y="17" type="curve" smooth="yes"/>
      <point x="352" y="17"/>
      <point x="175" y="177"/>
      <point x="175" y="481" type="curve" smooth="yes"/>
      <point x="175" y="484" type="line" smooth="yes"/>
      <point x="175" y="694"/>
      <point x="304" y="812"/>
      <point x="546" y="812" type="curve" smooth="yes"/>
      <point x="911" y="812" type="line"/>
      <point x="911" y="1171" type="line"/>
      <point x="874" y="1171" type="line"/>
      <point x="874" y="846" type="line"/>
      <point x="543" y="846" type="line" smooth="yes"/>
      <point x="283" y="846"/>
      <point x="137" y="714"/>
      <point x="137" y="484" type="curve" smooth="yes"/>
      <point x="137" y="480" type="line" smooth="yes"/>
      <point x="137" y="135"/>
      <point x="351" y="-18"/>
    </contour>
    <contour>
      <point x="20" y="1159" type="line"/>
      <point x="892" y="1159" type="line"/>
      <point x="894" y="1159" type="line"/>
      <point x="1105" y="1159" type="line"/>
      <point x="1105" y="1193" type="line"/>
      <point x="20" y="1193" type="line"/>
    </contour>
    <component base="_cap.shiro_left"/>
    <component base="_cap.shiro_right" xOffset="919"/>
  </outline>
</glyph>
<glyph name="Ba.gm" format="2">
  <advance width="1210"/>
  <unicode hex="0A2C"/>
  <anchor x="1310" y="100" name="bottom"/>
  <anchor x="1159" y="100" name="bottom1"/>
  <anchor x="1109" y="1200" name="top"/>
  <outline>
    <contour>
      <point x="603" y="184" type="curve" smooth="yes"/>
      <point x="760" y="184"/>
      <point x="881" y="230"/>
      <point x="946" y="266" type="curve"/>
      <point x="968" y="313" type="line"/>
      <point x="980" y="313" type="line"/>
      <point x="978" y="330" type="line"/>
      <point x="899" y="269"/>
      <point x="759" y="219"/>
      <point x="603" y="219" type="curve" smooth="yes"/>
      <point x="323" y="219"/>
      <point x="183" y="360"/>
      <point x="183" y="533" type="curve" smooth="yes"/>
      <point x="183" y="613" type="line"/>
      <point x="167" y="592" type="line"/>
      <point x="416" y="663"/>
      <point x="684" y="700"/>
      <point x="984" y="745" type="curve"/>
      <point x="984" y="779" type="line"/>
      <point x="802" y="755"/>
      <point x="690" y="735"/>
      <point x="570" y="716" type="curve"/>
      <point x="562" y="714" type="line"/>
      <point x="419" y="691"/>
      <point x="260" y="654"/>
      <point x="145" y="620" type="curve"/>
      <point x="145" y="533" type="line" smooth="yes"/>
      <point x="145" y="334"/>
      <point x="304" y="184"/>
    </contour>
    <contour>
      <point x="583" y="703" type="curve"/>
      <point x="626" y="723" type="line"/>
      <point x="344" y="732"/>
      <point x="203" y="883"/>
      <point x="203" y="1068" type="curve" smooth="yes"/>
      <point x="203" y="1176" type="line"/>
      <point x="165" y="1176" type="line"/>
      <point x="165" y="1068" type="line" smooth="yes"/>
      <point x="165" y="863"/>
      <point x="317" y="713"/>
    </contour>
    <contour>
      <point x="24" y="1159" type="line"/>
      <point x="183" y="1159" type="line"/>
      <point x="185" y="1159" type="line"/>
      <point x="984" y="1159" type="line"/>
      <point x="987" y="1159" type="line"/>
      <point x="1013" y="1159" type="line"/>
      <point x="1013" y="1193" type="line"/>
      <point x="24" y="1193" type="line"/>
    </contour>
    <component base="_danda" xOffset="785"/>
    <component base="_cap.shiro_left"/>
  </outline>
</glyph>
<glyph name="Bha.gm" format="2">
  <advance width="1100"/>
  <unicode hex="0A2D"/>
  <anchor x="982" y="100" name="bottom"/>
  <anchor x="997" y="95" name="bottom1"/>
  <anchor x="1053" y="1200" name="top"/>
  <outline>
    <contour>
      <point x="488" y="-14" type="curve" smooth="yes"/>
      <point x="806" y="-14"/>
      <point x="956" y="133"/>
      <point x="956" y="370" type="curve" smooth="yes"/>
      <point x="956" y="376" type="line" smooth="yes"/>
      <point x="956" y="518"/>
      <point x="896" y="615"/>
      <point x="847" y="685" type="curve"/>
      <point x="843" y="687" type="line"/>
      <point x="751" y="825"/>
      <point x="609" y="902"/>
      <point x="442" y="902" type="curve" smooth="yes"/>
      <point x="238" y="902"/>
      <point x="129" y="815"/>
      <point x="129" y="655" type="curve" smooth="yes"/>
      <point x="129" y="654" type="line" smooth="yes"/>
      <point x="129" y="496"/>
      <point x="238" y="410"/>
      <point x="442" y="410" type="curve" smooth="yes"/>
      <point x="623" y="410"/>
      <point x="770" y="503"/>
      <point x="847" y="641" type="curve"/>
      <point x="854" y="648" type="line"/>
      <point x="854" y="653" type="line"/>
      <point x="903" y="751"/>
      <point x="947" y="857"/>
      <point x="947" y="1069" type="curve" smooth="yes"/>
      <point x="947" y="1179" type="line"/>
      <point x="910" y="1179" type="line"/>
      <point x="910" y="1070" type="line" smooth="yes"/>
      <point x="910" y="876"/>
      <point x="866" y="765"/>
      <point x="829" y="685" type="curve"/>
      <point x="828" y="681" type="line"/>
      <point x="758" y="544"/>
      <point x="616" y="445"/>
      <point x="443" y="445" type="curve" smooth="yes"/>
      <point x="262" y="445"/>
      <point x="167" y="516"/>
      <point x="167" y="653" type="curve" smooth="yes"/>
      <point x="167" y="655" type="line" smooth="yes"/>
      <point x="167" y="794"/>
      <point x="262" y="867"/>
      <point x="443" y="867" type="curve" smooth="yes"/>
      <point x="592" y="867"/>
      <point x="732" y="788"/>
      <point x="825" y="648" type="curve"/>
      <point x="828" y="646" type="line"/>
      <point x="866" y="589"/>
      <point x="918" y="496"/>
      <point x="918" y="377" type="curve" smooth="yes"/>
      <point x="918" y="372" type="line" smooth="yes"/>
      <point x="918" y="154"/>
      <point x="783" y="21"/>
      <point x="488" y="21" type="curve" smooth="yes"/>
      <point x="344" y="21"/>
      <point x="201" y="57"/>
      <point x="86" y="121" type="curve"/>
      <point x="93" y="73" type="line"/>
      <point x="199" y="19"/>
      <point x="337" y="-14"/>
    </contour>
    <contour>
      <point x="30" y="1159" type="line"/>
      <point x="1079" y="1159" type="line"/>
      <point x="1079" y="1193" type="line"/>
      <point x="30" y="1193" type="line"/>
    </contour>
    <component base="_cap.shiro_left"/>
    <component base="_cap.shiro_right" xOffset="903"/>
  </outline>
</glyph>
<glyph name="Ma.gm" format="2">
  <advance width="1139"/>
  <unicode hex="0A2E"/>
  <anchor x="1239" y="100" name="bottom"/>
  <anchor x="1084" y="100" name="bottom1"/>
  <anchor x="1039" y="1200" name="top"/>
  <outline>
    <contour>
      <point x="185" y="104" type="curve"/>
      <point x="224" y="104" type="line"/>
      <point x="241" y="245"/>
      <point x="253" y="392"/>
      <point x="253" y="533" type="curve"/>
      <point x="253" y="721"/>
      <point x="241" y="949"/>
      <point x="215" y="1193" type="curve"/>
      <point x="33" y="1193" type="line"/>
      <point x="34" y="1159" type="line"/>
      <point x="181" y="1159" type="line"/>
      <point x="206" y="925"/>
      <point x="216" y="709"/>
      <point x="216" y="531" type="curve"/>
      <point x="216" y="395"/>
      <point x="204" y="243"/>
    </contour>
    <contour>
      <point x="237" y="471" type="line"/>
      <point x="916" y="471" type="line"/>
      <point x="916" y="505" type="line"/>
      <point x="237" y="505" type="line"/>
    </contour>
    <component base="_danda" xOffset="714"/>
    <component base="_cap.shiro_left"/>
  </outline>
</glyph>
<glyph name="Ya.gm" format="2">
  <advance width="1449"/>
  <unicode hex="0A2F"/>
  <anchor x="1549" y="100" name="bottom"/>
  <anchor x="1226" y="100" name="bottom1"/>
  <anchor x="1349" y="1200" name="top"/>
  <outline>
    <contour>
      <point x="525" y="212" type="curve" smooth="yes"/>
      <point x="597" y="212"/>
      <point x="686" y="225"/>
      <point x="747" y="248" type="curve"/>
      <point x="747" y="714" type="line"/>
      <point x="1203" y="714" type="line"/>
      <point x="1203" y="748" type="line"/>
      <point x="710" y="748" type="line"/>
      <point x="710" y="255" type="line"/>
      <point x="730" y="280" type="line"/>
      <point x="680" y="259"/>
      <point x="601" y="247"/>
      <point x="526" y="247" type="curve" smooth="yes"/>
      <point x="374" y="247"/>
      <point x="260" y="292"/>
      <point x="189" y="377" type="curve"/>
      <point x="237" y="499"/>
      <point x="263" y="690"/>
      <point x="263" y="935" type="curve" smooth="yes"/>
      <point x="263" y="1009"/>
      <point x="261" y="1089"/>
      <point x="257" y="1175" type="curve"/>
      <point x="219" y="1175" type="line"/>
      <point x="224" y="1092"/>
      <point x="225" y="1016"/>
      <point x="225" y="945" type="curve" smooth="yes"/>
      <point x="225" y="691"/>
      <point x="197" y="497"/>
      <point x="146" y="373" type="curve"/>
      <point x="228" y="267"/>
      <point x="356" y="212"/>
    </contour>
    <contour>
      <point x="26" y="1159" type="line"/>
      <point x="1209" y="1159" type="line"/>
      <point x="1209" y="1193" type="line"/>
      <point x="26" y="1193" type="line"/>
    </contour>
    <component base="_danda" xOffset="1024"/>
    <component base="_cap.shiro_left"/>
  </outline>
</glyph>
<glyph name="Ra.gm" format="2">
  <advance width="1168"/>
  <unicode hex="0A30"/>
  <anchor x="1115" y="100" name="bottom"/>
  <anchor x="1108" y="100" name="bottom1"/>
  <anchor x="1080" y="1200" name="top"/>
  <outline>
    <contour>
      <point x="603" y="-18" type="curve" smooth="yes"/>
      <point x="851" y="-18"/>
      <point x="974" y="103"/>
      <point x="974" y="335" type="curve" smooth="yes"/>
      <point x="974" y="1177" type="line"/>
      <point x="937" y="1177" type="line"/>
      <point x="937" y="759" type="line"/>
      <point x="937" y="752" type="line"/>
      <point x="937" y="336" type="line" smooth="yes"/>
      <point x="937" y="126"/>
      <point x="828" y="17"/>
      <point x="603" y="17" type="curve" smooth="yes"/>
      <point x="351" y="17"/>
      <point x="183" y="184"/>
      <point x="183" y="423" type="curve" smooth="yes"/>
      <point x="183" y="439" type="line" smooth="yes"/>
      <point x="183" y="621"/>
      <point x="271" y="738"/>
      <point x="499" y="738" type="curve" smooth="yes"/>
      <point x="957" y="738" type="line"/>
      <point x="957" y="772" type="line"/>
      <point x="499" y="772" type="line" smooth="yes"/>
      <point x="247" y="772"/>
      <point x="145" y="640"/>
      <point x="145" y="439" type="curve" smooth="yes"/>
      <point x="145" y="423" type="line" smooth="yes"/>
      <point x="145" y="162"/>
      <point x="326" y="-18"/>
    </contour>
    <contour>
      <point x="20" y="1159" type="line"/>
      <point x="1148" y="1159" type="line"/>
      <point x="1148" y="1193" type="line"/>
      <point x="20" y="1193" type="line"/>
    </contour>
    <component base="_cap.shiro_left"/>
    <component base="_cap.shiro_right" xOffset="973"/>
  </outline>
</glyph>
<glyph name="La.gm" format="2">
  <advance width="1302"/>
  <unicode hex="0A32"/>
  <anchor x="1336" y="100" name="bottom"/>
  <anchor x="1166" y="100" name="bottom1"/>
  <anchor x="1158" y="1200" name="top"/>
  <outline>
    <contour>
      <point x="655" y="471" type="curve"/>
      <point x="850" y="632"/>
      <point x="978" y="858"/>
      <point x="1048" y="1156" type="curve"/>
      <point x="1053" y="1175" type="line"/>
      <point x="1015" y="1175" type="line"/>
      <point x="1010" y="1156" type="line"/>
      <point x="945" y="884"/>
      <point x="831" y="685"/>
      <point x="655" y="521" type="curve"/>
      <point x="462" y="685"/>
      <point x="358" y="888"/>
      <point x="299" y="1156" type="curve"/>
      <point x="294" y="1175" type="line"/>
      <point x="256" y="1175" type="line"/>
      <point x="261" y="1156" type="line"/>
      <point x="325" y="862"/>
      <point x="442" y="632"/>
    </contour>
    <contour>
      <point x="272" y="0" type="curve"/>
      <point x="316" y="0" type="line"/>
      <point x="324" y="0" type="line"/>
      <point x="231" y="100"/>
      <point x="178" y="226"/>
      <point x="178" y="380" type="curve" smooth="yes"/>
      <point x="178" y="385" type="line" smooth="yes"/>
      <point x="178" y="586"/>
      <point x="267" y="713"/>
      <point x="408" y="777" type="curve"/>
      <point x="390" y="809" type="line"/>
      <point x="238" y="739"/>
      <point x="140" y="598"/>
      <point x="140" y="385" type="curve" smooth="yes"/>
      <point x="140" y="380" type="line" smooth="yes"/>
      <point x="140" y="225"/>
      <point x="193" y="96"/>
    </contour>
    <contour>
      <point x="1028" y="0" type="line"/>
      <point x="1107" y="98"/>
      <point x="1160" y="219"/>
      <point x="1160" y="379" type="curve" smooth="yes"/>
      <point x="1160" y="385" type="line" smooth="yes"/>
      <point x="1160" y="591"/>
      <point x="1068" y="737"/>
      <point x="912" y="809" type="curve"/>
      <point x="894" y="777" type="line"/>
      <point x="1036" y="712"/>
      <point x="1122" y="582"/>
      <point x="1122" y="385" type="curve" smooth="yes"/>
      <point x="1122" y="380" type="line" smooth="yes"/>
      <point x="1122" y="224"/>
      <point x="1069" y="100"/>
      <point x="976" y="0" type="curve"/>
      <point x="983" y="0" type="line"/>
    </contour>
    <contour>
      <point x="25" y="1159" type="line"/>
      <point x="1267" y="1159" type="line"/>
      <point x="1267" y="1193" type="line"/>
      <point x="25" y="1193" type="line"/>
    </contour>
    <component base="_cap.shiro_left"/>
    <component base="_cap.shiro_right" xOffset="1105"/>
  </outline>
</glyph>
<glyph name="Va.gm" format="2">
  <advance width="1137"/>
  <unicode hex="0A35"/>
  <anchor x="1105" y="88" name="bottom"/>
  <anchor x="1167" y="100" name="bottom1"/>
  <anchor x="1073" y="1200" name="top"/>
  <outline>
    <contour>
      <point x="365" y="408" type="curve"/>
      <point x="950" y="408" type="line"/>
      <point x="950" y="442" type="line"/>
      <point x="365" y="442" type="line" smooth="yes"/>
      <point x="223" y="445"/>
      <point x="148" y="512"/>
      <point x="148" y="639" type="curve" smooth="yes"/>
      <point x="148" y="757"/>
      <point x="224" y="819"/>
      <point x="369" y="819" type="curve" smooth="yes"/>
      <point x="968" y="819" type="line"/>
      <point x="968" y="1176" type="line"/>
      <point x="931" y="1176" type="line"/>
      <point x="931" y="853" type="line"/>
      <point x="369" y="853" type="line" smooth="yes"/>
      <point x="200" y="853"/>
      <point x="110" y="778"/>
      <point x="110" y="639" type="curve" smooth="yes"/>
      <point x="110" y="492"/>
      <point x="199" y="411"/>
    </contour>
    <contour>
      <point x="841" y="-12" type="curve" smooth="yes"/>
      <point x="889" y="-12"/>
      <point x="947" y="-6"/>
      <point x="995" y="6" type="curve"/>
      <point x="1003" y="41" type="line"/>
      <point x="952" y="30"/>
      <point x="891" y="23"/>
      <point x="841" y="23" type="curve" smooth="yes"/>
      <point x="629" y="23"/>
      <point x="464" y="123"/>
      <point x="424" y="427" type="curve"/>
      <point x="383" y="427" type="line"/>
      <point x="436" y="97"/>
      <point x="608" y="-12"/>
    </contour>
    <contour>
      <point x="30" y="1159" type="line"/>
      <point x="948" y="1159" type="line"/>
      <point x="953" y="1159" type="line"/>
      <point x="1130" y="1159" type="line"/>
      <point x="1130" y="1193" type="line"/>
      <point x="30" y="1193" type="line"/>
    </contour>
    <component base="_cap.shiro_left"/>
    <component base="_cap.shiro_right" xOffset="940"/>
  </outline>
</glyph>
<glyph name="Sha.gm" format="2">
  <advance width="1146"/>
  <unicode hex="0A36"/>
  <anchor x="1258" y="100" name="bottom"/>
  <anchor x="1095" y="100" name="bottom1"/>
  <anchor x="1058" y="1200" name="top"/>
  <outline>
    <contour>
      <point x="185" y="104" type="curve"/>
      <point x="223" y="104" type="line"/>
      <point x="240" y="244"/>
      <point x="253" y="392"/>
      <point x="253" y="533" type="curve"/>
      <point x="253" y="721"/>
      <point x="241" y="949"/>
      <point x="214" y="1193" type="curve"/>
      <point x="33" y="1193" type="line"/>
      <point x="34" y="1159" type="line"/>
      <point x="181" y="1159" type="line"/>
      <point x="205" y="925"/>
      <point x="216" y="709"/>
      <point x="216" y="531" type="curve"/>
      <point x="216" y="395"/>
      <point x="203" y="243"/>
    </contour>
    <contour>
      <point x="236" y="471" type="line"/>
      <point x="934" y="471" type="line"/>
      <point x="934" y="505" type="line"/>
      <point x="236" y="505" type="line"/>
    </contour>
    <contour>
      <point x="915" y="0" type="line"/>
      <point x="952" y="0" type="line"/>
      <point x="952" y="1159" type="line"/>
      <point x="1136" y="1159" type="line"/>
      <point x="1136" y="1193" type="line"/>
      <point x="915" y="1193" type="line"/>
      <point x="915" y="492" type="line"/>
      <point x="915" y="489" type="line"/>
    </contour>
    <contour>
      <point x="197" y="1159" type="line"/>
      <point x="932" y="1159" type="line"/>
      <point x="932" y="1193" type="line"/>
      <point x="197" y="1193" type="line"/>
    </contour>
    <contour>
      <point x="585" y="121" type="curve" smooth="yes"/>
      <point x="620" y="121"/>
      <point x="637" y="141"/>
      <point x="637" y="180" type="curve" smooth="yes"/>
      <point x="637" y="190" type="line" smooth="yes"/>
      <point x="637" y="228"/>
      <point x="620" y="248"/>
      <point x="585" y="248" type="curve" smooth="yes"/>
      <point x="552" y="248"/>
      <point x="534" y="228"/>
      <point x="534" y="190" type="curve" smooth="yes"/>
      <point x="534" y="180" type="line" smooth="yes"/>
      <point x="534" y="141"/>
      <point x="552" y="121"/>
    </contour>
    <component base="_cap.shiro_right" xOffset="951"/>
    <component base="_cap.shiro_left"/>
  </outline>
</glyph>
<glyph name="Sa.gm" format="2">
  <advance width="1149"/>
  <unicode hex="0A38"/>
  <anchor x="1249" y="100" name="bottom"/>
  <anchor x="1100" y="100" name="bottom1"/>
  <anchor x="1049" y="1200" name="top"/>
  <outline>
    <contour>
      <point x="185" y="104" type="curve"/>
      <point x="224" y="104" type="line"/>
      <point x="241" y="247"/>
      <point x="253" y="392"/>
      <point x="253" y="534" type="curve"/>
      <point x="253" y="722"/>
      <point x="239" y="949"/>
      <point x="210" y="1193" type="curve"/>
      <point x="33" y="1193" type="line"/>
      <point x="35" y="1159" type="line"/>
      <point x="176" y="1159" type="line"/>
      <point x="203" y="925"/>
      <point x="216" y="710"/>
      <point x="216" y="532" type="curve"/>
      <point x="216" y="395"/>
      <point x="204" y="243"/>
    </contour>
    <contour>
      <point x="236" y="471" type="line"/>
      <point x="925" y="471" type="line"/>
      <point x="925" y="505" type="line"/>
      <point x="236" y="505" type="line"/>
    </contour>
    <contour>
      <point x="106" y="1159" type="line"/>
      <point x="1024" y="1159" type="line"/>
      <point x="1024" y="1193" type="line"/>
      <point x="106" y="1193" type="line"/>
    </contour>
    <component base="_cap.shiro_left"/>
    <component base="_danda" xOffset="724"/>
  </outline>
</glyph>
<glyph name="Ha.gm" format="2">
  <advance width="1167"/>
  <unicode hex="0A39"/>
  <anchor x="1095" y="100" name="bottom"/>
  <anchor x="1109" y="100" name="bottom1"/>
  <anchor x="1077" y="1200" name="top"/>
  <outline>
    <contour>
      <point x="595" y="-18" type="curve" smooth="yes"/>
      <point x="850" y="-18"/>
      <point x="971" y="113"/>
      <point x="971" y="342" type="curve" smooth="yes"/>
      <point x="971" y="1177" type="line"/>
      <point x="934" y="1177" type="line"/>
      <point x="934" y="343" type="line" smooth="yes"/>
      <point x="934" y="133"/>
      <point x="828" y="17"/>
      <point x="595" y="17" type="curve" smooth="yes"/>
      <point x="343" y="17"/>
      <point x="180" y="188"/>
      <point x="180" y="423" type="curve" smooth="yes"/>
      <point x="180" y="446" type="line" smooth="yes"/>
      <point x="180" y="635"/>
      <point x="284" y="730"/>
      <point x="484" y="730" type="curve" smooth="yes"/>
      <point x="635" y="730" type="line"/>
      <point x="648" y="764" type="line"/>
      <point x="483" y="764" type="line" smooth="yes"/>
      <point x="262" y="764"/>
      <point x="142" y="655"/>
      <point x="142" y="446" type="curve" smooth="yes"/>
      <point x="142" y="423" type="line" smooth="yes"/>
      <point x="142" y="166"/>
      <point x="318" y="-18"/>
    </contour>
    <contour>
      <point x="20" y="1159" type="line"/>
      <point x="1144" y="1159" type="line"/>
      <point x="1144" y="1193" type="line"/>
      <point x="20" y="1193" type="line"/>
    </contour>
    <component base="_cap.shiro_left"/>
    <component base="_cap.shiro_right" xOffset="970"/>
  </outline>
</glyph>
<glyph name="Nukta.gm" format="2">
  <unicode hex="0A3C"/>
  <outline>
    <contour>
      <point x="-276" y="-183" type="curve" smooth="yes"/>
      <point x="-241" y="-183"/>
      <point x="-224" y="-163"/>
      <point x="-224" y="-124" type="curve" smooth="yes"/>
      <point x="-224" y="-114" type="line" smooth="yes"/>
      <point x="-224" y="-76"/>
      <point x="-241" y="-56"/>
      <point x="-276" y="-56" type="curve" smooth="yes"/>
      <point x="-309" y="-56"/>
      <point x="-327" y="-76"/>
      <point x="-327" y="-114" type="curve" smooth="yes"/>
      <point x="-327" y="-124" type="line" smooth="yes"/>
      <point x="-327" y="-163"/>
      <point x="-309" y="-183"/>
    </contour>
  </outline>
</glyph>
<glyph name="MatraU.gm" format="2">
  <unicode hex="0A41"/>
  <anchor x="700" y="100" name="_bottom1"/>
  <outline>
    <contour>
      <point x="184" y="-291" type="curve" smooth="yes"/>
      <point x="307" y="-291"/>
      <point x="433" y="-261"/>
      <point x="516" y="-208" type="curve"/>
      <point x="519" y="-172" type="line"/>
      <point x="437" y="-224"/>
      <point x="315" y="-256"/>
      <point x="187" y="-256" type="curve" smooth="yes"/>
      <point x="61" y="-256"/>
      <point x="-68" y="-224"/>
      <point x="-149" y="-172" type="curve"/>
      <point x="-146" y="-208" type="line"/>
      <point x="-67" y="-261"/>
      <point x="60" y="-291"/>
    </contour>
  </outline>
</glyph>
<glyph name="MatraUu.gm" format="2">
  <unicode hex="0A42"/>
  <anchor x="700" y="100" name="_bottom1"/>
  <outline>
    <contour>
      <point x="184" y="-255" type="curve" smooth="yes"/>
      <point x="307" y="-255"/>
      <point x="433" y="-226"/>
      <point x="516" y="-175" type="curve"/>
      <point x="519" y="-139" type="line"/>
      <point x="437" y="-190"/>
      <point x="315" y="-220"/>
      <point x="187" y="-220" type="curve" smooth="yes"/>
      <point x="61" y="-220"/>
      <point x="-68" y="-190"/>
      <point x="-149" y="-139" type="curve"/>
      <point x="-146" y="-175" type="line"/>
      <point x="-67" y="-226"/>
      <point x="60" y="-255"/>
    </contour>
    <contour>
      <point x="184" y="-478" type="curve" smooth="yes"/>
      <point x="307" y="-478"/>
      <point x="433" y="-449"/>
      <point x="516" y="-398" type="curve"/>
      <point x="519" y="-362" type="line"/>
      <point x="437" y="-413"/>
      <point x="315" y="-444"/>
      <point x="187" y="-444" type="curve" smooth="yes"/>
      <point x="61" y="-444"/>
      <point x="-68" y="-413"/>
      <point x="-149" y="-362" type="curve"/>
      <point x="-146" y="-398" type="line"/>
      <point x="-67" y="-449"/>
      <point x="60" y="-478"/>
    </contour>
  </outline>
</glyph>
<glyph name="MatraEe.gm" format="2">
  <unicode hex="0A47"/>
  <anchor x="500" y="1200" name="_top"/>
  <anchor x="734" y="1351" name="top1"/>
  <outline>
    <contour>
      <point x="359" y="1180" type="line"/>
      <point x="394" y="1180" type="line"/>
      <point x="331" y="1518"/>
      <point x="182" y="1663"/>
      <point x="-165" y="1663" type="curve" smooth="yes"/>
      <point x="-220" y="1663"/>
      <point x="-258" y="1660"/>
      <point x="-317" y="1654" type="curve"/>
      <point x="-324" y="1619" type="line"/>
      <point x="-268" y="1626"/>
      <point x="-218" y="1629"/>
      <point x="-164" y="1629" type="curve" smooth="yes"/>
      <point x="155" y="1629"/>
      <point x="295" y="1498"/>
      <point x="356" y="1195" type="curve" smooth="yes"/>
    </contour>
  </outline>
</glyph>
<glyph name="MatraAi.gm" format="2">
  <unicode hex="0A48"/>
  <anchor x="500" y="1200" name="_top"/>
  <anchor x="826" y="1382" name="top1"/>
  <outline>
    <contour>
      <point x="362" y="1187" type="line"/>
      <point x="394" y="1187" type="line"/>
      <point x="392" y="1274" type="line" smooth="yes"/>
      <point x="384" y="1612"/>
      <point x="236" y="1770"/>
      <point x="-131" y="1770" type="curve" smooth="yes"/>
      <point x="-201" y="1770"/>
      <point x="-284" y="1761"/>
      <point x="-383" y="1745" type="curve"/>
      <point x="-391" y="1711" type="line"/>
      <point x="-289" y="1727"/>
      <point x="-200" y="1736"/>
      <point x="-128" y="1736" type="curve" smooth="yes"/>
      <point x="217" y="1736"/>
      <point x="346" y="1578"/>
      <point x="366" y="1292" type="curve"/>
      <point x="359" y="1290" type="line"/>
    </contour>
    <contour>
      <point x="357" y="1187" type="line"/>
      <point x="381" y="1187" type="line"/>
      <point x="379" y="1214" type="line" smooth="yes"/>
      <point x="367" y="1380"/>
      <point x="247" y="1489"/>
      <point x="-69" y="1489" type="curve" smooth="yes"/>
      <point x="-124" y="1489"/>
      <point x="-208" y="1481"/>
      <point x="-301" y="1470" type="curve"/>
      <point x="-309" y="1435" type="line"/>
      <point x="-212" y="1447"/>
      <point x="-129" y="1454"/>
      <point x="-64" y="1454" type="curve" smooth="yes"/>
      <point x="234" y="1454"/>
      <point x="357" y="1341"/>
      <point x="357" y="1201" type="curve" smooth="yes"/>
    </contour>
  </outline>
</glyph>
<glyph name="MatraOo.gm" format="2">
  <unicode hex="0A4B"/>
  <anchor x="500" y="1200" name="_top"/>
  <anchor x="757" y="1355" name="top1"/>
  <outline>
    <contour>
      <point x="357" y="1183" type="curve"/>
      <point x="394" y="1183" type="line"/>
      <point x="394" y="1191"/>
      <point x="394" y="1197"/>
      <point x="394" y="1205" type="curve" smooth="yes"/>
      <point x="394" y="1402"/>
      <point x="310" y="1470"/>
      <point x="128" y="1489" type="curve" smooth="yes"/>
      <point x="-46" y="1507" type="line" smooth="yes"/>
      <point x="-182" y="1521"/>
      <point x="-272" y="1568"/>
      <point x="-272" y="1742" type="curve"/>
      <point x="-301" y="1742" type="line"/>
      <point x="-301" y="1717" type="line" smooth="yes"/>
      <point x="-301" y="1547"/>
      <point x="-207" y="1488"/>
      <point x="-44" y="1472" type="curve" smooth="yes"/>
      <point x="130" y="1455" type="line" smooth="yes"/>
      <point x="291" y="1439"/>
      <point x="357" y="1379"/>
    </contour>
  </outline>
</glyph>
<glyph name="MatraAu.gm" format="2">
  <unicode hex="0A4C"/>
  <anchor x="500" y="1200" name="_top"/>
  <anchor x="985" y="1449" name="top1"/>
  <outline>
    <contour>
      <point x="200" y="1348" type="curve"/>
      <point x="231" y="1348" type="line"/>
      <point x="208" y="1384"/>
      <point x="194" y="1423"/>
      <point x="194" y="1468" type="curve"/>
      <point x="194" y="1560"/>
      <point x="269" y="1622"/>
      <point x="377" y="1622" type="curve" smooth="yes"/>
      <point x="488" y="1622"/>
      <point x="559" y="1562"/>
      <point x="559" y="1468" type="curve" smooth="yes"/>
      <point x="559" y="1423"/>
      <point x="545" y="1384"/>
      <point x="521" y="1348" type="curve"/>
      <point x="552" y="1348" type="line"/>
      <point x="579" y="1384"/>
      <point x="593" y="1425"/>
      <point x="593" y="1471" type="curve" smooth="yes"/>
      <point x="593" y="1585"/>
      <point x="510" y="1657"/>
      <point x="377" y="1657" type="curve" smooth="yes"/>
      <point x="344" y="1657"/>
      <point x="313" y="1653"/>
      <point x="284" y="1643" type="curve"/>
      <point x="282" y="1638" type="line"/>
      <point x="209" y="1615"/>
      <point x="159" y="1553"/>
      <point x="159" y="1471" type="curve"/>
      <point x="159" y="1425"/>
      <point x="175" y="1384"/>
    </contour>
    <contour>
      <point x="105" y="1623" type="curve" smooth="yes"/>
      <point x="169" y="1623"/>
      <point x="215" y="1625"/>
      <point x="255" y="1630" type="curve"/>
      <point x="257" y="1625" type="line"/>
      <point x="337" y="1624" type="line"/>
      <point x="377" y="1657" type="line"/>
      <point x="117" y="1656" type="line" smooth="yes"/>
      <point x="-17" y="1655"/>
      <point x="-110" y="1690"/>
      <point x="-110" y="1836" type="curve"/>
      <point x="-140" y="1836" type="line"/>
      <point x="-140" y="1823" type="line" smooth="yes"/>
      <point x="-140" y="1665"/>
      <point x="-31" y="1623"/>
    </contour>
  </outline>
</glyph>
<glyph name="Virama.gm" format="2">
  <unicode hex="0A4D"/>
  <anchor x="700" y="100" name="_bottom"/>
  <outline>
    <contour>
      <point x="612" y="-452" type="line"/>
      <point x="651" y="-452" type="line"/>
      <point x="412" y="-134" type="line"/>
      <point x="369" y="-134" type="line"/>
    </contour>
  </outline>
</glyph>
<glyph name="Udaat.gm" format="2">
  <unicode hex="0A51"/>
  <anchor x="700" y="100" name="_bottom"/>
  <anchor x="630" y="240" name="bottom1"/>
  <outline>
    <contour>
      <point x="668" y="-452" type="curve"/>
      <point x="668" y="-419" type="line"/>
      <point x="508" y="-419"/>
      <point x="393" y="-323"/>
      <point x="393" y="-134" type="curve"/>
      <point x="356" y="-134" type="line"/>
      <point x="356" y="-341"/>
      <point x="491" y="-452"/>
    </contour>
  </outline>
</glyph>
<glyph name="Za.gm" format="2">
  <advance width="1195"/>
  <unicode hex="0A5B"/>
  <anchor x="1295" y="100" name="bottom"/>
  <anchor x="1111" y="100" name="bottom1"/>
  <anchor x="1095" y="1200" name="top"/>
  <outline>
    <contour>
      <point x="189" y="0" type="curve"/>
      <point x="226" y="0" type="line"/>
      <point x="245" y="177"/>
      <point x="256" y="383"/>
      <point x="256" y="569" type="curve" smooth="yes"/>
      <point x="256" y="704"/>
      <point x="248" y="841"/>
      <point x="234" y="951" type="curve"/>
      <point x="198" y="933" type="line"/>
      <point x="211" y="832"/>
      <point x="219" y="701"/>
      <point x="219" y="570" type="curve" smooth="yes"/>
      <point x="219" y="384"/>
      <point x="208" y="178"/>
    </contour>
    <contour>
      <point x="238" y="642" type="line"/>
      <point x="973" y="642" type="line"/>
      <point x="973" y="676" type="line"/>
      <point x="238" y="676" type="line"/>
    </contour>
    <contour>
      <point x="20" y="1159" type="line"/>
      <point x="972" y="1159" type="line"/>
      <point x="972" y="1193" type="line"/>
      <point x="20" y="1193" type="line"/>
    </contour>
    <contour>
      <point x="608" y="181" type="curve" smooth="yes"/>
      <point x="643" y="181"/>
      <point x="660" y="201"/>
      <point x="660" y="240" type="curve" smooth="yes"/>
      <point x="660" y="250" type="line" smooth="yes"/>
      <point x="660" y="288"/>
      <point x="643" y="308"/>
      <point x="608" y="308" type="curve" smooth="yes"/>
      <point x="575" y="308"/>
      <point x="557" y="288"/>
      <point x="557" y="250" type="curve" smooth="yes"/>
      <point x="557" y="240" type="line" smooth="yes"/>
      <point x="557" y="201"/>
      <point x="575" y="181"/>
    </contour>
    <component base="_danda" xOffset="770"/>
    <component base="_cap.shiro_left"/>
  </outline>
</glyph>
<glyph name="Rra.gm" format="2">
  <advance width="1004"/>
  <unicode hex="0A5C"/>
  <anchor x="920" y="15" name="bottom"/>
  <anchor x="1001" y="-5" name="bottom1"/>
  <anchor x="956" y="1200" name="top"/>
  <outline>
    <contour>
      <point x="463" y="64" type="curve" smooth="yes"/>
      <point x="731" y="64"/>
      <point x="858" y="177"/>
      <point x="858" y="384" type="curve" smooth="yes"/>
      <point x="858" y="397" type="line" smooth="yes"/>
      <point x="858" y="567"/>
      <point x="768" y="696"/>
      <point x="548" y="696" type="curve"/>
      <point x="572" y="674" type="line"/>
      <point x="572" y="686" type="line"/>
      <point x="751" y="682"/>
      <point x="850" y="828"/>
      <point x="850" y="1043" type="curve" smooth="yes"/>
      <point x="850" y="1175" type="line"/>
      <point x="812" y="1175" type="line"/>
      <point x="812" y="1043" type="line" smooth="yes"/>
      <point x="812" y="858"/>
      <point x="743" y="706"/>
      <point x="538" y="706" type="curve" smooth="yes"/>
      <point x="149" y="706" type="line"/>
      <point x="149" y="672" type="line"/>
      <point x="539" y="672" type="line" smooth="yes"/>
      <point x="732" y="672"/>
      <point x="820" y="551"/>
      <point x="820" y="394" type="curve" smooth="yes"/>
      <point x="820" y="388" type="line" smooth="yes"/>
      <point x="820" y="197"/>
      <point x="702" y="99"/>
      <point x="463" y="99" type="curve" smooth="yes"/>
      <point x="325" y="99"/>
      <point x="192" y="134"/>
      <point x="82" y="199" type="curve"/>
      <point x="90" y="151" type="line"/>
      <point x="192" y="95"/>
      <point x="323" y="64"/>
    </contour>
    <contour>
      <point x="338" y="-195" type="line"/>
      <point x="383" y="-195" type="line"/>
      <point x="130" y="151" type="line"/>
      <point x="90" y="151" type="line"/>
    </contour>
    <contour>
      <point x="896" y="-195" type="line"/>
      <point x="943" y="-195" type="line"/>
      <point x="694" y="122" type="line"/>
      <point x="661" y="108" type="line"/>
    </contour>
    <contour>
      <point x="20" y="1159" type="line"/>
      <point x="990" y="1159" type="line"/>
      <point x="990" y="1193" type="line"/>
      <point x="20" y="1193" type="line"/>
    </contour>
    <component base="_cap.shiro_left"/>
    <component base="_cap.shiro_right" xOffset="812"/>
  </outline>
</glyph>
<glyph name="zero.gm" format="2">
  <advance width="907"/>
  <unicode hex="0A66"/>
  <outline>
    <contour>
      <point x="458" y="173" type="curve" smooth="yes"/>
      <point x="670" y="173"/>
      <point x="802" y="310"/>
      <point x="802" y="527" type="curve" smooth="yes"/>
      <point x="802" y="711" type="line" smooth="yes"/>
      <point x="802" y="928"/>
      <point x="670" y="1065"/>
      <point x="458" y="1065" type="curve" smooth="yes"/>
      <point x="247" y="1065"/>
      <point x="114" y="928"/>
      <point x="114" y="711" type="curve" smooth="yes"/>
      <point x="114" y="527" type="line" smooth="yes"/>
      <point x="114" y="310"/>
      <point x="247" y="173"/>
    </contour>
    <contour>
      <point x="458" y="208" type="curve" smooth="yes"/>
      <point x="269" y="208"/>
      <point x="151" y="336"/>
      <point x="151" y="527" type="curve" smooth="yes"/>
      <point x="151" y="711" type="line" smooth="yes"/>
      <point x="151" y="909"/>
      <point x="269" y="1030"/>
      <point x="458" y="1030" type="curve" smooth="yes"/>
      <point x="643" y="1030"/>
      <point x="764" y="909"/>
      <point x="764" y="711" type="curve" smooth="yes"/>
      <point x="764" y="527" type="line" smooth="yes"/>
      <point x="764" y="336"/>
      <point x="643" y="208"/>
    </contour>
  </outline>
</glyph>
<glyph name="one.gm" format="2">
  <advance width="998"/>
  <unicode hex="0A67"/>
  <outline>
    <contour>
      <point x="803" y="0" type="line"/>
      <point x="840" y="0" type="line"/>
      <point x="840" y="851" type="line" smooth="yes"/>
      <point x="840" y="1075"/>
      <point x="706" y="1212"/>
      <point x="478" y="1212" type="curve" smooth="yes"/>
      <point x="249" y="1212"/>
      <point x="120" y="1087"/>
      <point x="120" y="871" type="curve" smooth="yes"/>
      <point x="120" y="840" type="line" smooth="yes"/>
      <point x="120" y="625"/>
      <point x="252" y="504"/>
      <point x="479" y="504" type="curve" smooth="yes"/>
      <point x="636" y="504"/>
      <point x="738" y="554"/>
      <point x="785" y="589" type="curve"/>
      <point x="803" y="629" type="line"/>
      <point x="814" y="629" type="line"/>
      <point x="803" y="642" type="line"/>
      <point x="742" y="589"/>
      <point x="630" y="539"/>
      <point x="479" y="539" type="curve" smooth="yes"/>
      <point x="274" y="539"/>
      <point x="158" y="647"/>
      <point x="158" y="840" type="curve" smooth="yes"/>
      <point x="158" y="871" type="line" smooth="yes"/>
      <point x="158" y="1068"/>
      <point x="272" y="1177"/>
      <point x="478" y="1177" type="curve" smooth="yes"/>
      <point x="685" y="1177"/>
      <point x="803" y="1056"/>
      <point x="803" y="851" type="curve" smooth="yes"/>
    </contour>
  </outline>
</glyph>
<glyph name="two.gm" format="2">
  <advance width="977"/>
  <unicode hex="0A68"/>
  <outline>
    <contour>
      <point x="434" y="385" type="curve" smooth="yes"/>
      <point x="713" y="385"/>
      <point x="858" y="523"/>
      <point x="858" y="788" type="curve" smooth="yes"/>
      <point x="858" y="802" type="line" smooth="yes"/>
      <point x="858" y="1072"/>
      <point x="724" y="1212"/>
      <point x="467" y="1212" type="curve" smooth="yes"/>
      <point x="304" y="1212"/>
      <point x="190" y="1160"/>
      <point x="114" y="1097" type="curve"/>
      <point x="114" y="1048" type="line"/>
      <point x="189" y="1122"/>
      <point x="318" y="1177"/>
      <point x="466" y="1177" type="curve" smooth="yes"/>
      <point x="699" y="1177"/>
      <point x="820" y="1049"/>
      <point x="820" y="802" type="curve" smooth="yes"/>
      <point x="820" y="788" type="line" smooth="yes"/>
      <point x="820" y="546"/>
      <point x="688" y="420"/>
      <point x="434" y="420" type="curve" smooth="yes"/>
      <point x="304" y="420"/>
      <point x="189" y="450"/>
      <point x="100" y="501" type="curve"/>
      <point x="108" y="459" type="line"/>
      <point x="193" y="417"/>
      <point x="287" y="385"/>
    </contour>
    <contour>
      <point x="693" y="-45" type="line"/>
      <point x="746" y="-45" type="line"/>
      <point x="573" y="127"/>
      <point x="398" y="295"/>
      <point x="274" y="408" type="curve"/>
      <point x="258" y="421" type="line"/>
      <point x="196" y="439" type="line"/>
    </contour>
  </outline>
</glyph>
<glyph name="three.gm" format="2">
  <advance width="988"/>
  <unicode hex="0A69"/>
  <outline>
    <contour>
      <point x="473" y="77" type="curve" smooth="yes"/>
      <point x="724" y="77"/>
      <point x="866" y="186"/>
      <point x="866" y="371" type="curve" smooth="yes"/>
      <point x="866" y="382" type="line" smooth="yes"/>
      <point x="866" y="533"/>
      <point x="765" y="654"/>
      <point x="591" y="654" type="curve"/>
      <point x="628" y="633" type="line"/>
      <point x="628" y="646" type="line"/>
      <point x="763" y="651"/>
      <point x="849" y="754"/>
      <point x="849" y="895" type="curve" smooth="yes"/>
      <point x="849" y="898" type="line" smooth="yes"/>
      <point x="849" y="1099"/>
      <point x="710" y="1212"/>
      <point x="464" y="1212" type="curve" smooth="yes"/>
      <point x="346" y="1212"/>
      <point x="220" y="1178"/>
      <point x="120" y="1117" type="curve"/>
      <point x="120" y="1072" type="line"/>
      <point x="220" y="1140"/>
      <point x="345" y="1177"/>
      <point x="464" y="1177" type="curve" smooth="yes"/>
      <point x="688" y="1177"/>
      <point x="811" y="1078"/>
      <point x="811" y="897" type="curve" smooth="yes"/>
      <point x="811" y="896" type="line" smooth="yes"/>
      <point x="811" y="771"/>
      <point x="747" y="665"/>
      <point x="557" y="665" type="curve" smooth="yes"/>
      <point x="200" y="665" type="line"/>
      <point x="200" y="631" type="line"/>
      <point x="560" y="631" type="line" smooth="yes"/>
      <point x="742" y="631"/>
      <point x="828" y="527"/>
      <point x="828" y="381" type="curve" smooth="yes"/>
      <point x="828" y="372" type="line" smooth="yes"/>
      <point x="828" y="208"/>
      <point x="700" y="112"/>
      <point x="473" y="112" type="curve" smooth="yes"/>
      <point x="332" y="112"/>
      <point x="214" y="148"/>
      <point x="95" y="212" type="curve"/>
      <point x="103" y="166" type="line"/>
      <point x="205" y="117"/>
      <point x="342" y="77"/>
    </contour>
    <contour>
      <point x="561" y="-168" type="line"/>
      <point x="620" y="-168" type="line"/>
      <point x="488" y="-62"/>
      <point x="401" y="14"/>
      <point x="286" y="108" type="curve"/>
      <point x="283" y="112" type="line"/>
      <point x="215" y="127" type="line"/>
    </contour>
  </outline>
</glyph>
<glyph name="four.gm" format="2">
  <advance width="1074"/>
  <unicode hex="0A6A"/>
  <outline>
    <contour>
      <point x="535" y="-10" type="curve" smooth="yes"/>
      <point x="796" y="-10"/>
      <point x="927" y="100"/>
      <point x="927" y="310" type="curve" smooth="yes"/>
      <point x="927" y="319" type="line" smooth="yes"/>
      <point x="927" y="512"/>
      <point x="832" y="606"/>
      <point x="660" y="627" type="curve"/>
      <point x="660" y="629" type="line"/>
      <point x="853" y="650"/>
      <point x="942" y="749"/>
      <point x="942" y="913" type="curve" smooth="yes"/>
      <point x="942" y="1008"/>
      <point x="929" y="1108"/>
      <point x="905" y="1193" type="curve"/>
      <point x="868" y="1193" type="line"/>
      <point x="892" y="1106"/>
      <point x="905" y="1007"/>
      <point x="905" y="913" type="curve" smooth="yes"/>
      <point x="905" y="745"/>
      <point x="802" y="647"/>
      <point x="535" y="647" type="curve" smooth="yes"/>
      <point x="272" y="647"/>
      <point x="165" y="745"/>
      <point x="165" y="913" type="curve" smooth="yes"/>
      <point x="165" y="1007"/>
      <point x="178" y="1106"/>
      <point x="202" y="1193" type="curve"/>
      <point x="165" y="1193" type="line"/>
      <point x="141" y="1107"/>
      <point x="128" y="1008"/>
      <point x="128" y="913" type="curve" smooth="yes"/>
      <point x="128" y="749"/>
      <point x="221" y="649"/>
      <point x="405" y="629" type="curve"/>
      <point x="405" y="627" type="line"/>
      <point x="239" y="606"/>
      <point x="143" y="511"/>
      <point x="143" y="319" type="curve" smooth="yes"/>
      <point x="143" y="310" type="line" smooth="yes"/>
      <point x="143" y="100"/>
      <point x="276" y="-10"/>
    </contour>
    <contour>
      <point x="535" y="25" type="curve" smooth="yes"/>
      <point x="301" y="25"/>
      <point x="181" y="122"/>
      <point x="181" y="310" type="curve" smooth="yes"/>
      <point x="181" y="319" type="line" smooth="yes"/>
      <point x="181" y="487"/>
      <point x="262" y="612"/>
      <point x="535" y="611" type="curve" smooth="yes"/>
      <point x="816" y="610"/>
      <point x="889" y="487"/>
      <point x="889" y="319" type="curve" smooth="yes"/>
      <point x="889" y="310" type="line" smooth="yes"/>
      <point x="889" y="122"/>
      <point x="773" y="25"/>
    </contour>
  </outline>
</glyph>
<glyph name="five.gm" format="2">
  <advance width="1083"/>
  <unicode hex="0A6B"/>
  <outline>
    <contour>
      <point x="536" y="229" type="curve" smooth="yes"/>
      <point x="672" y="229"/>
      <point x="802" y="269"/>
      <point x="869" y="310" type="curve"/>
      <point x="888" y="348" type="line"/>
      <point x="899" y="348" type="line"/>
      <point x="895" y="365" type="line"/>
      <point x="812" y="305"/>
      <point x="671" y="264"/>
      <point x="536" y="264" type="curve" smooth="yes"/>
      <point x="368" y="264"/>
      <point x="226" y="325"/>
      <point x="145" y="403" type="curve"/>
      <point x="197" y="591"/>
      <point x="222" y="801"/>
      <point x="222" y="1010" type="curve" smooth="yes"/>
      <point x="222" y="1073"/>
      <point x="220" y="1134"/>
      <point x="215" y="1193" type="curve"/>
      <point x="178" y="1193" type="line"/>
      <point x="183" y="1132"/>
      <point x="185" y="1069"/>
      <point x="185" y="1006" type="curve" smooth="yes"/>
      <point x="185" y="796"/>
      <point x="161" y="585"/>
      <point x="103" y="394" type="curve"/>
      <point x="206" y="289"/>
      <point x="350" y="229"/>
    </contour>
    <contour>
      <point x="888" y="0" type="line"/>
      <point x="925" y="0" type="line"/>
      <point x="925" y="1193" type="line"/>
      <point x="888" y="1193" type="line"/>
    </contour>
  </outline>
</glyph>
<glyph name="six.gm" format="2">
  <advance width="975"/>
  <unicode hex="0A6C"/>
  <outline>
    <contour>
      <point x="520" y="-10" type="curve" smooth="yes"/>
      <point x="676" y="-10"/>
      <point x="787" y="33"/>
      <point x="866" y="79" type="curve"/>
      <point x="874" y="120" type="line"/>
      <point x="782" y="69"/>
      <point x="674" y="25"/>
      <point x="520" y="25" type="curve" smooth="yes"/>
      <point x="294" y="25"/>
      <point x="160" y="127"/>
      <point x="160" y="300" type="curve" smooth="yes"/>
      <point x="160" y="321" type="line" smooth="yes"/>
      <point x="160" y="471"/>
      <point x="245" y="579"/>
      <point x="424" y="579" type="curve" smooth="yes"/>
      <point x="789" y="579" type="line"/>
      <point x="789" y="613" type="line"/>
      <point x="427" y="613" type="line" smooth="yes"/>
      <point x="236" y="613"/>
      <point x="172" y="723"/>
      <point x="172" y="868" type="curve" smooth="yes"/>
      <point x="172" y="877" type="line" smooth="yes"/>
      <point x="172" y="1043"/>
      <point x="298" y="1141"/>
      <point x="510" y="1141" type="curve" smooth="yes"/>
      <point x="625" y="1141"/>
      <point x="759" y="1102"/>
      <point x="844" y="1046" type="curve"/>
      <point x="838" y="1088" type="line"/>
      <point x="748" y="1140"/>
      <point x="632" y="1176"/>
      <point x="510" y="1176" type="curve" smooth="yes"/>
      <point x="274" y="1176"/>
      <point x="134" y="1066"/>
      <point x="134" y="879" type="curve" smooth="yes"/>
      <point x="134" y="871" type="line" smooth="yes"/>
      <point x="134" y="705"/>
      <point x="216" y="593"/>
      <point x="386" y="593" type="curve"/>
      <point x="386" y="583" type="line"/>
      <point x="417" y="604" type="line"/>
      <point x="212" y="604"/>
      <point x="122" y="478"/>
      <point x="122" y="322" type="curve" smooth="yes"/>
      <point x="122" y="299" type="line" smooth="yes"/>
      <point x="122" y="105"/>
      <point x="270" y="-10"/>
    </contour>
    <contour>
      <point x="880" y="1453" type="curve"/>
      <point x="872" y="1487" type="line"/>
      <point x="833" y="1496"/>
      <point x="795" y="1499"/>
      <point x="753" y="1499" type="curve" smooth="yes"/>
      <point x="619" y="1499"/>
      <point x="540" y="1432"/>
      <point x="540" y="1332" type="curve" smooth="yes"/>
      <point x="540" y="1231"/>
      <point x="606" y="1174"/>
      <point x="699" y="1136" type="curve"/>
      <point x="703" y="1137" type="line"/>
      <point x="720" y="1141" type="line"/>
      <point x="634" y="1186"/>
      <point x="578" y="1244"/>
      <point x="578" y="1332" type="curve" smooth="yes"/>
      <point x="578" y="1413"/>
      <point x="640" y="1465"/>
      <point x="756" y="1465" type="curve" smooth="yes"/>
      <point x="796" y="1465"/>
      <point x="840" y="1462"/>
    </contour>
  </outline>
</glyph>
<glyph name="seven.gm" format="2">
  <advance width="1070"/>
  <unicode hex="0A6D"/>
  <outline>
    <contour>
      <point x="128" y="0" type="line"/>
      <point x="279" y="0" type="line" smooth="yes"/>
      <point x="688" y="0"/>
      <point x="937" y="207"/>
      <point x="937" y="578" type="curve" smooth="yes"/>
      <point x="937" y="767" type="line" smooth="yes"/>
      <point x="937" y="1048"/>
      <point x="802" y="1211"/>
      <point x="528" y="1211" type="curve" smooth="yes"/>
      <point x="287" y="1211"/>
      <point x="120" y="1059"/>
      <point x="120" y="784" type="curve" smooth="yes"/>
      <point x="120" y="659" type="line"/>
      <point x="157" y="659" type="line"/>
      <point x="157" y="783" type="line" smooth="yes"/>
      <point x="157" y="1038"/>
      <point x="309" y="1176"/>
      <point x="528" y="1176" type="curve" smooth="yes"/>
      <point x="781" y="1176"/>
      <point x="899" y="1027"/>
      <point x="899" y="767" type="curve" smooth="yes"/>
      <point x="899" y="578" type="line" smooth="yes"/>
      <point x="899" y="224"/>
      <point x="662" y="34"/>
      <point x="275" y="34" type="curve" smooth="yes"/>
      <point x="118" y="34" type="line"/>
    </contour>
  </outline>
</glyph>
<glyph name="eight.gm" format="2">
  <advance width="1044"/>
  <unicode hex="0A6E"/>
  <outline>
    <contour>
      <point x="649" y="-14" type="curve" smooth="yes"/>
      <point x="787" y="-14"/>
      <point x="902" y="31"/>
      <point x="960" y="70" type="curve"/>
      <point x="969" y="118" type="line"/>
      <point x="908" y="72"/>
      <point x="788" y="22"/>
      <point x="649" y="22" type="curve" smooth="yes"/>
      <point x="348" y="22"/>
      <point x="195" y="180"/>
      <point x="195" y="493" type="curve" smooth="yes"/>
      <point x="195" y="1208" type="line"/>
      <point x="158" y="1188" type="line"/>
      <point x="158" y="493" type="line" smooth="yes"/>
      <point x="158" y="158"/>
      <point x="325" y="-14"/>
    </contour>
    <contour>
      <point x="180" y="892" type="line"/>
      <point x="934" y="894" type="line"/>
      <point x="934" y="928" type="line"/>
      <point x="180" y="926" type="line"/>
    </contour>
  </outline>
</glyph>
<glyph name="nine.gm" format="2">
  <advance width="1044"/>
  <unicode hex="0A6F"/>
  <outline>
    <contour>
      <point x="649" y="-14" type="curve" smooth="yes"/>
      <point x="787" y="-14"/>
      <point x="903" y="31"/>
      <point x="960" y="70" type="curve"/>
      <point x="969" y="118" type="line"/>
      <point x="908" y="72"/>
      <point x="788" y="22"/>
      <point x="649" y="22" type="curve" smooth="yes"/>
      <point x="348" y="22"/>
      <point x="195" y="180"/>
      <point x="195" y="493" type="curve" smooth="yes"/>
      <point x="195" y="1208" type="line"/>
      <point x="158" y="1188" type="line"/>
      <point x="158" y="493" type="line" smooth="yes"/>
      <point x="158" y="156"/>
      <point x="323" y="-14"/>
    </contour>
    <contour>
      <point x="180" y="892" type="line"/>
      <point x="935" y="894" type="line"/>
      <point x="935" y="928" type="line"/>
      <point x="180" y="926" type="line"/>
    </contour>
    <contour>
      <point x="830" y="917" type="line"/>
      <point x="887" y="926" type="line"/>
      <point x="769" y="974"/>
      <point x="691" y="1041"/>
      <point x="691" y="1143" type="curve" smooth="yes"/>
      <point x="691" y="1233"/>
      <point x="754" y="1295"/>
      <point x="877" y="1295" type="curve"/>
      <point x="923" y="1295"/>
      <point x="965" y="1291"/>
      <point x="1003" y="1283" type="curve"/>
      <point x="994" y="1317" type="line"/>
      <point x="959" y="1325"/>
      <point x="918" y="1329"/>
      <point x="874" y="1329" type="curve"/>
      <point x="731" y="1329"/>
      <point x="652" y="1253"/>
      <point x="652" y="1143" type="curve" smooth="yes"/>
      <point x="652" y="1027"/>
      <point x="735" y="962"/>
      <point x="827" y="925" type="curve"/>
    </contour>
  </outline>
</glyph>
<glyph name="Tippi.gm" format="2">
  <unicode hex="0A70"/>
  <anchor x="500" y="1200" name="_top"/>
  <outline>
    <contour>
      <point x="203" y="1348" type="curve"/>
      <point x="235" y="1348" type="line"/>
      <point x="212" y="1384"/>
      <point x="198" y="1429"/>
      <point x="198" y="1467" type="curve" smooth="yes"/>
      <point x="198" y="1562"/>
      <point x="267" y="1621"/>
      <point x="381" y="1621" type="curve" smooth="yes"/>
      <point x="494" y="1621"/>
      <point x="563" y="1562"/>
      <point x="563" y="1467" type="curve" smooth="yes"/>
      <point x="563" y="1428"/>
      <point x="549" y="1383"/>
      <point x="525" y="1348" type="curve"/>
      <point x="558" y="1348" type="line"/>
      <point x="582" y="1383"/>
      <point x="598" y="1428"/>
      <point x="599" y="1471" type="curve" smooth="yes"/>
      <point x="599" y="1586"/>
      <point x="516" y="1657"/>
      <point x="381" y="1657" type="curve" smooth="yes"/>
      <point x="246" y="1657"/>
      <point x="162" y="1586"/>
      <point x="162" y="1471" type="curve" smooth="yes"/>
      <point x="162" y="1429"/>
      <point x="178" y="1383"/>
    </contour>
  </outline>
</glyph>
<glyph name="Iri.gm" format="2">
  <advance width="1106"/>
  <unicode hex="0A72"/>
  <anchor x="1029" y="1200" name="top"/>
  <outline>
    <contour>
      <point x="629" y="-14" type="curve" smooth="yes"/>
      <point x="773" y="-14"/>
      <point x="884" y="21"/>
      <point x="972" y="70" type="curve"/>
      <point x="981" y="118" type="line"/>
      <point x="890" y="62"/>
      <point x="775" y="22"/>
      <point x="629" y="22" type="curve" smooth="yes"/>
      <point x="373" y="22"/>
      <point x="196" y="160"/>
      <point x="196" y="410" type="curve"/>
      <point x="196" y="510" type="line"/>
      <point x="169" y="472" type="line"/>
      <point x="384" y="569"/>
      <point x="655" y="631"/>
      <point x="923" y="660" type="curve"/>
      <point x="923" y="1177" type="line"/>
      <point x="886" y="1177" type="line"/>
      <point x="886" y="687" type="line"/>
      <point x="765" y="672"/>
      <point x="646" y="652"/>
      <point x="533" y="625" type="curve"/>
      <point x="520" y="622" type="line"/>
      <point x="390" y="592"/>
      <point x="269" y="554"/>
      <point x="159" y="506" type="curve"/>
      <point x="159" y="410" type="line"/>
      <point x="159" y="138"/>
      <point x="350" y="-14"/>
    </contour>
    <contour>
      <point x="524" y="604" type="line"/>
      <point x="547" y="606" type="line"/>
      <point x="586" y="627" type="line"/>
      <point x="324" y="646"/>
      <point x="206" y="784"/>
      <point x="206" y="973" type="curve" smooth="yes"/>
      <point x="206" y="1175" type="line"/>
      <point x="169" y="1175" type="line"/>
      <point x="169" y="973" type="line" smooth="yes"/>
      <point x="169" y="774"/>
      <point x="295" y="637"/>
      <point x="518" y="608" type="curve"/>
    </contour>
    <contour>
      <point x="26" y="1159" type="line"/>
      <point x="186" y="1159" type="line"/>
      <point x="188" y="1159" type="line"/>
      <point x="904" y="1159" type="line"/>
      <point x="906" y="1159" type="line"/>
      <point x="1097" y="1159" type="line"/>
      <point x="1097" y="1193" type="line"/>
      <point x="26" y="1193" type="line"/>
    </contour>
    <component base="_cap.shiro_left"/>
    <component base="_cap.shiro_right" xOffset="909"/>
  </outline>
</glyph>
<glyph name="Ura.gm" format="2">
  <advance width="1212"/>
  <unicode hex="0A73"/>
  <anchor x="1534" y="1351" name="top1"/>
  <outline>
    <contour>
      <point x="666" y="-23" type="curve" smooth="yes"/>
      <point x="907" y="-23"/>
      <point x="1027" y="96"/>
      <point x="1027" y="320" type="curve" smooth="yes"/>
      <point x="1027" y="324" type="line" smooth="yes"/>
      <point x="1027" y="517"/>
      <point x="906" y="644"/>
      <point x="698" y="644" type="curve"/>
      <point x="732" y="627" type="line"/>
      <point x="732" y="637" type="line"/>
      <point x="902" y="637"/>
      <point x="1065" y="785"/>
      <point x="1065" y="1073" type="curve" smooth="yes"/>
      <point x="1065" y="1175" type="line"/>
      <point x="1027" y="1175" type="line"/>
      <point x="1027" y="1075" type="line" smooth="yes"/>
      <point x="1027" y="804"/>
      <point x="889" y="655"/>
      <point x="663" y="655" type="curve" smooth="yes"/>
      <point x="200" y="655" type="line"/>
      <point x="200" y="621" type="line"/>
      <point x="666" y="621" type="line"/>
      <point x="873" y="621"/>
      <point x="989" y="508"/>
      <point x="989" y="325" type="curve" smooth="yes"/>
      <point x="989" y="322" type="line" smooth="yes"/>
      <point x="989" y="120"/>
      <point x="883" y="13"/>
      <point x="665" y="13" type="curve" smooth="yes"/>
      <point x="344" y="13"/>
      <point x="216" y="208"/>
      <point x="216" y="562" type="curve"/>
      <point x="216" y="1147" type="line" smooth="yes"/>
      <point x="216" y="1498"/>
      <point x="370" y="1639"/>
      <point x="638" y="1639" type="curve" smooth="yes"/>
      <point x="896" y="1639"/>
      <point x="1027" y="1500"/>
      <point x="1027" y="1282" type="curve" smooth="yes"/>
      <point x="1027" y="1191" type="line"/>
      <point x="1035" y="1191" type="line"/>
      <point x="1038" y="1193" type="line"/>
      <point x="1065" y="1205" type="line"/>
      <point x="1065" y="1282" type="line" smooth="yes"/>
      <point x="1065" y="1521"/>
      <point x="922" y="1674"/>
      <point x="638" y="1674" type="curve" smooth="yes"/>
      <point x="348" y="1674"/>
      <point x="179" y="1521"/>
      <point x="179" y="1147" type="curve"/>
      <point x="179" y="562" type="line"/>
      <point x="179" y="176"/>
      <point x="324" y="-23"/>
    </contour>
    <contour>
      <point x="18" y="1159" type="line"/>
      <point x="207" y="1159" type="line"/>
      <point x="209" y="1159" type="line"/>
      <point x="1043" y="1159" type="line"/>
      <point x="1050" y="1159" type="line"/>
      <point x="1202" y="1159" type="line"/>
      <point x="1202" y="1193" type="line"/>
      <point x="18" y="1193" type="line"/>
    </contour>
    <component base="_cap.shiro_left"/>
    <component base="_cap.shiro_right" xOffset="1020"/>
  </outline>
</glyph>
<glyph name="EkOnkar.gm" format="2">
  <advance width="2119"/>
  <unicode hex="0A74"/>
  <outline>
    <contour>
      <point x="1573" y="-23" type="curve" smooth="yes"/>
      <point x="1829" y="-23"/>
      <point x="1934" y="111"/>
      <point x="1934" y="310" type="curve" smooth="yes"/>
      <point x="1934" y="314" type="line" smooth="yes"/>
      <point x="1934" y="509"/>
      <point x="1814" y="644"/>
      <point x="1605" y="644" type="curve"/>
      <point x="1639" y="627" type="line"/>
      <point x="1639" y="637" type="line"/>
      <point x="1809" y="637"/>
      <point x="1972" y="772"/>
      <point x="1972" y="1043" type="curve" smooth="yes"/>
      <point x="1972" y="1172" type="line"/>
      <point x="1934" y="1172" type="line"/>
      <point x="1934" y="1045" type="line" smooth="yes"/>
      <point x="1934" y="792"/>
      <point x="1796" y="655"/>
      <point x="1570" y="655" type="curve" smooth="yes"/>
      <point x="1112" y="655" type="line"/>
      <point x="1112" y="621" type="line"/>
      <point x="1573" y="621" type="line" smooth="yes"/>
      <point x="1780" y="621"/>
      <point x="1896" y="499"/>
      <point x="1896" y="315" type="curve" smooth="yes"/>
      <point x="1896" y="312" type="line" smooth="yes"/>
      <point x="1896" y="130"/>
      <point x="1804" y="13"/>
      <point x="1572" y="13" type="curve" smooth="yes"/>
      <point x="1285" y="13"/>
      <point x="1123" y="174"/>
      <point x="1123" y="563" type="curve" smooth="yes"/>
      <point x="1123" y="1104" type="line" smooth="yes"/>
      <point x="1123" y="1482"/>
      <point x="1308" y="1639"/>
      <point x="1623" y="1639" type="curve" smooth="yes"/>
      <point x="1709" y="1639"/>
      <point x="1780" y="1626"/>
      <point x="1847" y="1605" type="curve"/>
      <point x="1840" y="1641" type="line"/>
      <point x="1774" y="1662"/>
      <point x="1700" y="1674"/>
      <point x="1623" y="1674" type="curve" smooth="yes"/>
      <point x="1286" y="1674"/>
      <point x="1086" y="1505"/>
      <point x="1086" y="1104" type="curve"/>
      <point x="1086" y="563" type="line" smooth="yes"/>
      <point x="1086" y="146"/>
      <point x="1262" y="-23"/>
    </contour>
    <contour>
      <point x="1109" y="1159" type="line"/>
      <point x="1112" y="1159" type="line"/>
      <point x="1116" y="1159" type="line"/>
      <point x="1952" y="1159" type="line"/>
      <point x="1956" y="1159" type="line"/>
      <point x="2093" y="1159" type="line"/>
      <point x="2093" y="1193" type="line"/>
      <point x="1117" y="1193" type="line"/>
    </contour>
    <contour>
      <point x="1847" y="1605" type="line"/>
      <point x="1847" y="1640" type="line" smooth="yes"/>
      <point x="1847" y="1828"/>
      <point x="1982" y="1981"/>
      <point x="2226" y="1980" type="curve" smooth="yes"/>
      <point x="2295" y="1980"/>
      <point x="2350" y="1970"/>
      <point x="2405" y="1954" type="curve"/>
      <point x="2398" y="1990" type="line"/>
      <point x="2344" y="2006"/>
      <point x="2287" y="2015"/>
      <point x="2226" y="2015" type="curve" smooth="yes"/>
      <point x="1960" y="2015"/>
      <point x="1810" y="1851"/>
      <point x="1810" y="1640" type="curve"/>
      <point x="1810" y="1626" type="line"/>
    </contour>
    <component base="one.gm"/>
    <component base="_cap.shiro_right" xOffset="1922"/>
  </outline>
</glyph>
<glyph name="Yakash.gm" format="2">
  <unicode hex="0A75"/>
  <anchor x="700" y="100" name="_bottom"/>
  <anchor x="630" y="240" name="bottom1"/>
  <outline>
    <contour>
      <point x="593" y="-437" type="curve" smooth="yes"/>
      <point x="739" y="-437"/>
      <point x="819" y="-360"/>
      <point x="819" y="-198" type="curve"/>
      <point x="782" y="-198" type="line"/>
      <point x="782" y="-339"/>
      <point x="709" y="-404"/>
      <point x="593" y="-404" type="curve" smooth="yes"/>
      <point x="472" y="-404"/>
      <point x="394" y="-339"/>
      <point x="394" y="-198" type="curve" smooth="yes"/>
      <point x="394" y="18" type="line"/>
      <point x="357" y="18" type="line"/>
      <point x="357" y="-198" type="line" smooth="yes"/>
      <point x="357" y="-360"/>
      <point x="441" y="-437"/>
    </contour>
  </outline>
</glyph>
<glyph name="guilsinglright" format="2">
  <advance width="550"/>
  <unicode hex="203A"/>
  <outline>
    <contour>
      <point x="411" y="484" type="line"/>
      <point x="83" y="101" type="line"/>
      <point x="129" y="101" type="line"/>
      <point x="443" y="465" type="line"/>
      <point x="443" y="503" type="line"/>
      <point x="129" y="867" type="line"/>
      <point x="83" y="867" type="line"/>
    </contour>
  </outline>
</glyph>
<glyph name="Khanda.gm" format="2">
  <advance width="1744"/>
  <unicode hex="262C"/>
  <outline>
    <contour>
      <point x="785" y="1" type="line"/>
      <point x="957" y="1" type="line"/>
      <point x="911" y="196" type="line"/>
      <point x="1086" y="56" type="line"/>
      <point x="1197" y="151" type="line"/>
      <point x="951" y="253" type="line"/>
      <point x="1166" y="253"/>
      <point x="1563" y="422"/>
      <point x="1563" y="813" type="curve" smooth="yes"/>
      <point x="1563" y="1022"/>
      <point x="1437" y="1169"/>
      <point x="1265" y="1184" type="curve"/>
      <point x="1320" y="1116"/>
      <point x="1364" y="1018"/>
      <point x="1364" y="866" type="curve" smooth="yes"/>
      <point x="1364" y="490"/>
      <point x="1082" y="355"/>
      <point x="907" y="338" type="curve"/>
      <point x="907" y="399" type="line"/>
      <point x="1021" y="470" type="line"/>
      <point x="974" y="599"/>
      <point x="953" y="733"/>
      <point x="953" y="866" type="curve" smooth="yes"/>
      <point x="953" y="1007"/>
      <point x="978" y="1149"/>
      <point x="1030" y="1287" type="curve"/>
      <point x="878" y="1434" type="line"/>
      <point x="721" y="1287" type="line"/>
      <point x="774" y="1149"/>
      <point x="803" y="1006"/>
      <point x="803" y="863" type="curve" smooth="yes"/>
      <point x="803" y="730"/>
      <point x="780" y="597"/>
      <point x="733" y="470" type="curve"/>
      <point x="833" y="404" type="line"/>
      <point x="833" y="338" type="line"/>
      <point x="659" y="355"/>
      <point x="380" y="490"/>
      <point x="380" y="866" type="curve" smooth="yes"/>
      <point x="380" y="1018"/>
      <point x="425" y="1116"/>
      <point x="480" y="1184" type="curve"/>
      <point x="307" y="1169"/>
      <point x="181" y="1022"/>
      <point x="181" y="813" type="curve" smooth="yes"/>
      <point x="181" y="422"/>
      <point x="575" y="253"/>
      <point x="790" y="253" type="curve"/>
      <point x="546" y="151" type="line"/>
      <point x="656" y="56" type="line"/>
      <point x="829" y="196" type="line"/>
    </contour>
    <contour>
      <point x="876" y="528" type="curve" smooth="yes"/>
      <point x="1111" y="528"/>
      <point x="1261" y="663"/>
      <point x="1261" y="882" type="curve" smooth="yes"/>
      <point x="1261" y="1101"/>
      <point x="1111" y="1233"/>
      <point x="876" y="1233" type="curve" smooth="yes"/>
      <point x="640" y="1233"/>
      <point x="491" y="1101"/>
      <point x="491" y="882" type="curve" smooth="yes"/>
      <point x="491" y="663"/>
      <point x="640" y="528"/>
    </contour>
    <contour>
      <point x="876" y="572" type="curve" smooth="yes"/>
      <point x="713" y="572"/>
      <point x="639" y="680"/>
      <point x="639" y="882" type="curve" smooth="yes"/>
      <point x="639" y="1082"/>
      <point x="713" y="1190"/>
      <point x="876" y="1190" type="curve" smooth="yes"/>
      <point x="1039" y="1190"/>
      <point x="1113" y="1082"/>
      <point x="1113" y="882" type="curve" smooth="yes"/>
      <point x="1113" y="680"/>
      <point x="1039" y="572"/>
    </contour>
  </outline>
</glyph>
<glyph name="Addak.gm.alt" format="2">
  <anchor x="500" y="1200" name="_top1"/>
  <outline>
    <contour>
      <point x="179" y="1397" type="curve" smooth="yes"/>
      <point x="287" y="1397"/>
      <point x="346" y="1462"/>
      <point x="351" y="1582" type="curve"/>
      <point x="321" y="1582" type="line"/>
      <point x="315" y="1488"/>
      <point x="269" y="1432"/>
      <point x="179" y="1432" type="curve" smooth="yes"/>
      <point x="88" y="1432"/>
      <point x="41" y="1488"/>
      <point x="35" y="1582" type="curve"/>
      <point x="5" y="1582" type="line"/>
      <point x="10" y="1462"/>
      <point x="69" y="1397"/>
    </contour>
  </outline>
</glyph>
<glyph name="AddakBindi.gm.alt" format="2">
  <anchor x="500" y="1200" name="_top1"/>
  <outline>
    <contour>
      <point x="174" y="1407" type="curve" smooth="yes"/>
      <point x="281" y="1407"/>
      <point x="337" y="1469"/>
      <point x="344" y="1581" type="curve"/>
      <point x="309" y="1581" type="line"/>
      <point x="301" y="1503"/>
      <point x="263" y="1442"/>
      <point x="174" y="1442" type="curve" smooth="yes"/>
      <point x="86" y="1442"/>
      <point x="47" y="1503"/>
      <point x="41" y="1581" type="curve"/>
      <point x="6" y="1581" type="line"/>
      <point x="12" y="1469"/>
      <point x="67" y="1407"/>
    </contour>
    <contour>
      <point x="175" y="1526" type="curve" smooth="yes"/>
      <point x="204" y="1526"/>
      <point x="216" y="1543"/>
      <point x="216" y="1572" type="curve" smooth="yes"/>
      <point x="216" y="1580" type="line" smooth="yes"/>
      <point x="216" y="1609"/>
      <point x="203" y="1626"/>
      <point x="175" y="1626" type="curve" smooth="yes"/>
      <point x="146" y="1626"/>
      <point x="134" y="1609"/>
      <point x="134" y="1580" type="curve" smooth="yes"/>
      <point x="134" y="1572" type="line" smooth="yes"/>
      <point x="134" y="1543"/>
      <point x="146" y="1526"/>
    </contour>
  </outline>
</glyph>
<glyph name="AddakBindiDist.gm" format="2">
  <anchor x="480" y="1200" name="_top"/>
  <outline>
    <contour>
      <point x="366.2" y="1557.05" type="curve" smooth="yes"/>
      <point x="400.4" y="1557.05"/>
      <point x="414.65" y="1577.95"/>
      <point x="414.65" y="1612.15" type="curve" smooth="yes"/>
      <point x="414.65" y="1620.7" type="line" smooth="yes"/>
      <point x="414.65" y="1654.9"/>
      <point x="399.45" y="1675.8"/>
      <point x="366.2" y="1675.8" type="curve" smooth="yes"/>
      <point x="332" y="1675.8"/>
      <point x="317.75" y="1654.9"/>
      <point x="317.75" y="1620.7" type="curve" smooth="yes"/>
      <point x="317.75" y="1612.15" type="line" smooth="yes"/>
      <point x="317.75" y="1577.95"/>
      <point x="332" y="1557.05"/>
    </contour>
    <contour>
      <point x="366" y="1378" type="curve" smooth="yes"/>
      <point x="516" y="1378"/>
      <point x="602" y="1466"/>
      <point x="606" y="1642" type="curve"/>
      <point x="574" y="1642" type="line"/>
      <point x="568" y="1494"/>
      <point x="497" y="1413"/>
      <point x="366" y="1413" type="curve" smooth="yes"/>
      <point x="233" y="1413"/>
      <point x="161" y="1494"/>
      <point x="156" y="1642" type="curve"/>
      <point x="124" y="1642" type="line"/>
      <point x="129" y="1466"/>
      <point x="213" y="1378"/>
    </contour>
  </outline>
</glyph>
<glyph name="AddakDist.gm" format="2">
  <anchor x="480" y="1200" name="_top"/>
  <outline>
    <contour>
      <point x="366" y="1378" type="curve" smooth="yes"/>
      <point x="516" y="1378"/>
      <point x="602" y="1466"/>
      <point x="606" y="1642" type="curve"/>
      <point x="574" y="1642" type="line"/>
      <point x="568" y="1494"/>
      <point x="497" y="1413"/>
      <point x="366" y="1413" type="curve" smooth="yes"/>
      <point x="233" y="1413"/>
      <point x="161" y="1494"/>
      <point x="156" y="1642" type="curve"/>
      <point x="124" y="1642" type="line"/>
      <point x="129" y="1466"/>
      <point x="213" y="1378"/>
    </contour>
  </outline>
</glyph>
<glyph name="AddhaMa.gm" format="2">
  <advance width="1086"/>
  <anchor x="1045" y="100" name="bottom1"/>
  <anchor x="976" y="1200" name="top"/>
  <outline>
    <contour>
      <point x="57" y="521" type="line"/>
      <point x="854" y="521" type="line"/>
      <point x="854" y="554" type="line"/>
      <point x="57" y="554" type="line"/>
    </contour>
    <component base="_danda" xOffset="661"/>
  </outline>
</glyph>
<glyph name="AddhaTha.gm" format="2">
  <advance width="1069"/>
  <anchor x="1025" y="100" name="bottom1"/>
  <anchor x="959" y="1200" name="top"/>
  <outline>
    <contour>
      <point x="443" y="267" type="curve" smooth="yes"/>
      <point x="583" y="267"/>
      <point x="727" y="288"/>
      <point x="838" y="331" type="curve"/>
      <point x="838" y="366" type="line"/>
      <point x="727" y="323"/>
      <point x="583" y="302"/>
      <point x="443" y="302" type="curve" smooth="yes"/>
      <point x="309" y="302"/>
      <point x="169" y="324"/>
      <point x="57" y="367" type="curve"/>
      <point x="57" y="329" type="line"/>
      <point x="169" y="288"/>
      <point x="309" y="267"/>
    </contour>
    <contour>
      <point x="19" y="1159" type="line"/>
      <point x="888" y="1159" type="line"/>
      <point x="888" y="1193" type="line"/>
      <point x="19" y="1193" type="line"/>
    </contour>
    <component base="_danda" xOffset="644"/>
    <component base="_cap.shiro_left"/>
  </outline>
</glyph>
<glyph name="AddhaYa.gm" format="2">
  <advance width="1231"/>
  <anchor x="1110" y="100" name="bottom1"/>
  <anchor x="1121" y="1200" name="top"/>
  <outline>
    <contour>
      <point x="352" y="212" type="curve" smooth="yes"/>
      <point x="423" y="212"/>
      <point x="505" y="225"/>
      <point x="568" y="248" type="curve"/>
      <point x="568" y="714" type="line"/>
      <point x="1011" y="714" type="line"/>
      <point x="1011" y="748" type="line"/>
      <point x="531" y="748" type="line"/>
      <point x="531" y="255" type="line"/>
      <point x="550" y="280" type="line"/>
      <point x="501" y="259"/>
      <point x="427" y="247"/>
      <point x="353" y="247" type="curve" smooth="yes"/>
      <point x="242" y="247"/>
      <point x="136" y="271"/>
      <point x="55" y="328" type="curve"/>
      <point x="55" y="286" type="line"/>
      <point x="135" y="237"/>
      <point x="239" y="212"/>
    </contour>
    <contour>
      <point x="1" y="1159" type="line"/>
      <point x="1048" y="1159" type="line"/>
      <point x="1048" y="1193" type="line"/>
      <point x="1" y="1193" type="line"/>
    </contour>
    <component base="_danda" xOffset="806"/>
    <component base="_cap.shiro_left"/>
  </outline>
</glyph>
<glyph name="Bindi.gm.alt" format="2">
  <anchor x="500" y="1200" name="_top1"/>
  <outline>
    <contour>
      <point x="97" y="1475" type="curve" smooth="yes"/>
      <point x="131" y="1475"/>
      <point x="146" y="1496"/>
      <point x="146" y="1530" type="curve" smooth="yes"/>
      <point x="146" y="1539" type="line" smooth="yes"/>
      <point x="146" y="1573"/>
      <point x="130" y="1594"/>
      <point x="97" y="1594" type="curve" smooth="yes"/>
      <point x="63" y="1594"/>
      <point x="49" y="1573"/>
      <point x="49" y="1539" type="curve" smooth="yes"/>
      <point x="49" y="1530" type="line" smooth="yes"/>
      <point x="49" y="1496"/>
      <point x="63" y="1475"/>
    </contour>
  </outline>
</glyph>
<glyph name="KaViramaRa.gm" format="2">
  <advance width="1150"/>
  <anchor x="1133" y="-210" name="bottom"/>
  <anchor x="1246" y="-236" name="bottom1"/>
  <anchor x="1128" y="1200" name="top"/>
  <outline>
    <contour>
      <point x="607" y="-246" type="line"/>
      <point x="973" y="-246" type="line"/>
      <point x="997" y="-233" type="line"/>
      <point x="1011" y="-181"/>
      <point x="1017" y="-111"/>
      <point x="1017" y="-36" type="curve" smooth="yes"/>
      <point x="1017" y="21" type="line" smooth="yes"/>
      <point x="1017" y="278"/>
      <point x="963" y="425"/>
      <point x="860" y="607" type="curve"/>
      <point x="858" y="611" type="line"/>
      <point x="769" y="765"/>
      <point x="652" y="913"/>
      <point x="433" y="913" type="curve" smooth="yes"/>
      <point x="226" y="913"/>
      <point x="116" y="798"/>
      <point x="116" y="591" type="curve" smooth="yes"/>
      <point x="116" y="573" type="line" smooth="yes"/>
      <point x="116" y="365"/>
      <point x="227" y="254"/>
      <point x="433" y="254" type="curve" smooth="yes"/>
      <point x="640" y="254"/>
      <point x="763" y="394"/>
      <point x="858" y="565" type="curve"/>
      <point x="860" y="568" type="line"/>
      <point x="938" y="733"/>
      <point x="988" y="899"/>
      <point x="1009" y="1041" type="curve" smooth="yes"/>
      <point x="1029" y="1178" type="line"/>
      <point x="991" y="1178" type="line"/>
      <point x="972" y="1047" type="line" smooth="yes"/>
      <point x="946" y="867"/>
      <point x="902" y="758"/>
      <point x="837" y="610" type="curve"/>
      <point x="837" y="609" type="line"/>
      <point x="739" y="432"/>
      <point x="621" y="289"/>
      <point x="434" y="289" type="curve" smooth="yes"/>
      <point x="249" y="289"/>
      <point x="154" y="391"/>
      <point x="154" y="574" type="curve" smooth="yes"/>
      <point x="154" y="591" type="line" smooth="yes"/>
      <point x="154" y="773"/>
      <point x="248" y="878"/>
      <point x="434" y="878" type="curve" smooth="yes"/>
      <point x="639" y="878"/>
      <point x="756" y="725"/>
      <point x="837" y="565" type="curve"/>
      <point x="838" y="564" type="line"/>
      <point x="925" y="417"/>
      <point x="980" y="263"/>
      <point x="980" y="22" type="curve" smooth="yes"/>
      <point x="980" y="-36" type="line" smooth="yes"/>
      <point x="980" y="-120"/>
      <point x="972" y="-191"/>
      <point x="963" y="-226" type="curve"/>
      <point x="980" y="-212" type="line"/>
      <point x="617" y="-212" type="line"/>
    </contour>
    <contour>
      <point x="1329" y="-522" type="curve"/>
      <point x="1321" y="-469" type="line"/>
      <point x="1236" y="-393"/>
      <point x="1102" y="-289"/>
      <point x="987" y="-215" type="curve"/>
      <point x="963" y="-243" type="line"/>
      <point x="1086" y="-319"/>
      <point x="1236" y="-433"/>
    </contour>
    <contour>
      <point x="19" y="1159" type="line"/>
      <point x="1170" y="1159" type="line"/>
      <point x="1170" y="1193" type="line"/>
      <point x="19" y="1193" type="line"/>
    </contour>
    <component base="_cap.shiro_left"/>
    <component base="_cap.shiro_right" xOffset="985"/>
  </outline>
</glyph>
<glyph name="LaHa.gm" format="2">
  <advance width="1302"/>
  <anchor x="1226" y="-455" name="bottom1"/>
  <anchor x="1158" y="1200" name="top"/>
  <outline>
    <contour>
      <point x="655" y="471" type="curve"/>
      <point x="850" y="632"/>
      <point x="978" y="858"/>
      <point x="1048" y="1156" type="curve"/>
      <point x="1053" y="1175" type="line"/>
      <point x="1015" y="1175" type="line"/>
      <point x="1010" y="1156" type="line"/>
      <point x="945" y="884"/>
      <point x="831" y="685"/>
      <point x="655" y="521" type="curve"/>
      <point x="462" y="685"/>
      <point x="358" y="888"/>
      <point x="299" y="1156" type="curve"/>
      <point x="294" y="1175" type="line"/>
      <point x="256" y="1175" type="line"/>
      <point x="261" y="1156" type="line"/>
      <point x="325" y="862"/>
      <point x="442" y="632"/>
    </contour>
    <contour>
      <point x="272" y="0" type="curve"/>
      <point x="316" y="0" type="line"/>
      <point x="324" y="0" type="line"/>
      <point x="231" y="100"/>
      <point x="178" y="226"/>
      <point x="178" y="380" type="curve" smooth="yes"/>
      <point x="178" y="385" type="line" smooth="yes"/>
      <point x="178" y="586"/>
      <point x="267" y="713"/>
      <point x="408" y="777" type="curve"/>
      <point x="390" y="809" type="line"/>
      <point x="238" y="739"/>
      <point x="140" y="598"/>
      <point x="140" y="385" type="curve" smooth="yes"/>
      <point x="140" y="380" type="line" smooth="yes"/>
      <point x="140" y="225"/>
      <point x="193" y="96"/>
    </contour>
    <contour>
      <point x="1020" y="0" type="line"/>
      <point x="1106" y="96"/>
      <point x="1160" y="219"/>
      <point x="1160" y="379" type="curve" smooth="yes"/>
      <point x="1160" y="385" type="line" smooth="yes"/>
      <point x="1160" y="591"/>
      <point x="1068" y="737"/>
      <point x="912" y="809" type="curve"/>
      <point x="894" y="777" type="line"/>
      <point x="1036" y="712"/>
      <point x="1122" y="582"/>
      <point x="1122" y="385" type="curve" smooth="yes"/>
      <point x="1122" y="380" type="line" smooth="yes"/>
      <point x="1122" y="224"/>
      <point x="1076" y="110"/>
      <point x="983" y="12" type="curve"/>
      <point x="983" y="0" type="line"/>
    </contour>
    <contour>
      <point x="25" y="1159" type="line"/>
      <point x="1267" y="1159" type="line"/>
      <point x="1267" y="1193" type="line"/>
      <point x="25" y="1193" type="line"/>
    </contour>
    <contour>
      <point x="739" y="-604" type="curve" smooth="yes"/>
      <point x="920" y="-604"/>
      <point x="1020" y="-510"/>
      <point x="1020" y="-351" type="curve" smooth="yes"/>
      <point x="1020" y="0" type="line"/>
      <point x="983" y="0" type="line"/>
      <point x="983" y="-351" type="line" smooth="yes"/>
      <point x="983" y="-492"/>
      <point x="902" y="-571"/>
      <point x="738" y="-571" type="curve" smooth="yes"/>
      <point x="557" y="-571"/>
      <point x="446" y="-475"/>
      <point x="446" y="-332" type="curve" smooth="yes"/>
      <point x="446" y="-325" type="line" smooth="yes"/>
      <point x="446" y="-223"/>
      <point x="523" y="-159"/>
      <point x="643" y="-159" type="curve" smooth="yes"/>
      <point x="794" y="-159" type="line"/>
      <point x="794" y="-125" type="line"/>
      <point x="643" y="-125" type="line" smooth="yes"/>
      <point x="503" y="-125"/>
      <point x="408" y="-203"/>
      <point x="408" y="-325" type="curve" smooth="yes"/>
      <point x="408" y="-332" type="line" smooth="yes"/>
      <point x="408" y="-495"/>
      <point x="537" y="-604"/>
    </contour>
    <component base="_cap.shiro_left"/>
    <component base="_cap.shiro_right" xOffset="1105"/>
  </outline>
</glyph>
<glyph name="MatraAi.gm.alt" format="2">
  <anchor x="500" y="1200" name="_top"/>
  <anchor x="836" y="1382" name="top1"/>
  <outline>
    <contour>
      <point x="364" y="1188" type="line"/>
      <point x="394" y="1188" type="line"/>
      <point x="392" y="1274" type="line" smooth="yes"/>
      <point x="384" y="1612"/>
      <point x="266" y="1769"/>
      <point x="-33" y="1769" type="curve" smooth="yes"/>
      <point x="-94" y="1769"/>
      <point x="-150" y="1760"/>
      <point x="-222" y="1744" type="curve"/>
      <point x="-224" y="1710" type="line"/>
      <point x="-150" y="1726"/>
      <point x="-91" y="1735"/>
      <point x="-31" y="1735" type="curve" smooth="yes"/>
      <point x="248" y="1735"/>
      <point x="343" y="1577"/>
      <point x="367" y="1293" type="curve"/>
      <point x="362" y="1292" type="line"/>
    </contour>
    <contour>
      <point x="357" y="1188" type="line"/>
      <point x="380" y="1188" type="line"/>
      <point x="378" y="1214" type="line" smooth="yes"/>
      <point x="366" y="1375"/>
      <point x="273" y="1488"/>
      <point x="16" y="1488" type="curve" smooth="yes"/>
      <point x="-41" y="1488"/>
      <point x="-95" y="1479"/>
      <point x="-157" y="1469" type="curve"/>
      <point x="-159" y="1435" type="line"/>
      <point x="-94" y="1445"/>
      <point x="-43" y="1454"/>
      <point x="20" y="1454" type="curve" smooth="yes"/>
      <point x="259" y="1454"/>
      <point x="357" y="1341"/>
      <point x="357" y="1199" type="curve" smooth="yes"/>
    </contour>
  </outline>
</glyph>
<glyph name="MatraAu.gm.alt" format="2">
  <anchor x="500" y="1200" name="_top"/>
  <anchor x="975" y="1449" name="top1"/>
  <outline>
    <contour>
      <point x="206" y="1348" type="curve"/>
      <point x="236" y="1348" type="line"/>
      <point x="214" y="1384"/>
      <point x="199" y="1423"/>
      <point x="199" y="1468" type="curve"/>
      <point x="199" y="1560"/>
      <point x="274" y="1622"/>
      <point x="372" y="1622" type="curve" smooth="yes"/>
      <point x="477" y="1622"/>
      <point x="543" y="1562"/>
      <point x="543" y="1468" type="curve" smooth="yes"/>
      <point x="543" y="1423"/>
      <point x="530" y="1384"/>
      <point x="506" y="1348" type="curve"/>
      <point x="536" y="1348" type="line"/>
      <point x="562" y="1384"/>
      <point x="576" y="1425"/>
      <point x="576" y="1471" type="curve" smooth="yes"/>
      <point x="576" y="1585"/>
      <point x="497" y="1657"/>
      <point x="372" y="1657" type="curve" smooth="yes"/>
      <point x="344" y="1657"/>
      <point x="313" y="1654"/>
      <point x="285" y="1643" type="curve"/>
      <point x="282" y="1638" type="line"/>
      <point x="215" y="1615"/>
      <point x="167" y="1553"/>
      <point x="167" y="1471" type="curve"/>
      <point x="167" y="1425"/>
      <point x="181" y="1384"/>
    </contour>
    <contour>
      <point x="150" y="1623" type="curve" smooth="yes"/>
      <point x="202" y="1623"/>
      <point x="238" y="1627"/>
      <point x="267" y="1634" type="curve"/>
      <point x="271" y="1628" type="line"/>
      <point x="337" y="1624" type="line"/>
      <point x="372" y="1657" type="line"/>
      <point x="162" y="1656" type="line" smooth="yes"/>
      <point x="43" y="1655"/>
      <point x="-31" y="1690"/>
      <point x="-40" y="1836" type="curve"/>
      <point x="-70" y="1836" type="line"/>
      <point x="-68" y="1817" type="line" smooth="yes"/>
      <point x="-53" y="1672"/>
      <point x="26" y="1623"/>
    </contour>
  </outline>
</glyph>
<glyph name="MatraEe.gm.alt" format="2">
  <anchor x="500" y="1200" name="_top"/>
  <anchor x="744" y="1351" name="top1"/>
  <outline>
    <contour>
      <point x="359" y="1180" type="line"/>
      <point x="395" y="1180" type="line"/>
      <point x="328" y="1530"/>
      <point x="244" y="1668"/>
      <point x="-12" y="1668" type="curve" smooth="yes"/>
      <point x="-53" y="1668"/>
      <point x="-80" y="1665"/>
      <point x="-124" y="1659" type="curve"/>
      <point x="-129" y="1624" type="line"/>
      <point x="-88" y="1631"/>
      <point x="-51" y="1634"/>
      <point x="-11" y="1634" type="curve" smooth="yes"/>
      <point x="221" y="1634"/>
      <point x="295" y="1499"/>
      <point x="356" y="1195" type="curve" smooth="yes"/>
    </contour>
  </outline>
</glyph>
<glyph name="MatraEeTa.gm" format="2">
  <anchor x="500" y="1200" name="_top"/>
  <anchor x="734" y="1351" name="top1"/>
  <outline>
    <contour>
      <point x="359" y="1180" type="line"/>
      <point x="394" y="1180" type="line"/>
      <point x="334" y="1518"/>
      <point x="193" y="1663"/>
      <point x="-135" y="1663" type="curve" smooth="yes"/>
      <point x="-190" y="1663"/>
      <point x="-228" y="1660"/>
      <point x="-287" y="1654" type="curve"/>
      <point x="-294" y="1619" type="line"/>
      <point x="-238" y="1626"/>
      <point x="-188" y="1629"/>
      <point x="-134" y="1629" type="curve" smooth="yes"/>
      <point x="167" y="1629"/>
      <point x="295" y="1497"/>
      <point x="356" y="1195" type="curve" smooth="yes"/>
    </contour>
  </outline>
</glyph>
<glyph name="MatraIiBindi.gm" format="2">
  <advance width="448"/>
  <anchor x="734" y="1351" name="top1"/>
  <outline>
    <contour>
      <point x="331" y="1626" type="curve" smooth="yes"/>
      <point x="365" y="1626"/>
      <point x="380" y="1647"/>
      <point x="380" y="1681" type="curve" smooth="yes"/>
      <point x="380" y="1690" type="line" smooth="yes"/>
      <point x="380" y="1724"/>
      <point x="364" y="1745"/>
      <point x="331" y="1745" type="curve" smooth="yes"/>
      <point x="297" y="1745"/>
      <point x="283" y="1724"/>
      <point x="283" y="1690" type="curve" smooth="yes"/>
      <point x="283" y="1681" type="line" smooth="yes"/>
      <point x="283" y="1647"/>
      <point x="297" y="1626"/>
    </contour>
    <component base="MatraIi.gm"/>
  </outline>
</glyph>
<glyph name="MatraOo.gm.alt" format="2">
  <anchor x="500" y="1200" name="_top"/>
  <anchor x="757" y="1355" name="top1"/>
  <outline>
    <contour>
      <point x="357" y="1183" type="curve"/>
      <point x="394" y="1183" type="line"/>
      <point x="394" y="1186"/>
      <point x="394" y="1188"/>
      <point x="394" y="1191" type="curve" smooth="yes"/>
      <point x="394" y="1389"/>
      <point x="332" y="1461"/>
      <point x="154" y="1489" type="curve" smooth="yes"/>
      <point x="102" y="1497" type="line" smooth="yes"/>
      <point x="-21" y="1516"/>
      <point x="-104" y="1563"/>
      <point x="-104" y="1737" type="curve"/>
      <point x="-133" y="1737" type="line"/>
      <point x="-133" y="1712" type="line" smooth="yes"/>
      <point x="-133" y="1542"/>
      <point x="-46" y="1486"/>
      <point x="104" y="1462" type="curve" smooth="yes"/>
      <point x="155" y="1454" type="line" smooth="yes"/>
      <point x="303" y="1431"/>
      <point x="357" y="1373"/>
    </contour>
  </outline>
</glyph>
<glyph name="MatraU.gm.alt" format="2">
  <anchor x="600" y="100" name="_bottom1"/>
  <outline>
    <contour>
      <point x="105" y="-834" type="curve" smooth="yes"/>
      <point x="205" y="-834"/>
      <point x="309" y="-809"/>
      <point x="378" y="-766" type="curve"/>
      <point x="380" y="-734" type="line"/>
      <point x="311" y="-777"/>
      <point x="212" y="-802"/>
      <point x="109" y="-802" type="curve" smooth="yes"/>
      <point x="6" y="-802"/>
      <point x="-99" y="-777"/>
      <point x="-166" y="-734" type="curve"/>
      <point x="-164" y="-766" type="line"/>
      <point x="-98" y="-809"/>
      <point x="5" y="-834"/>
    </contour>
  </outline>
</glyph>
<glyph name="MatraUu.gm.alt" format="2">
  <anchor x="600" y="100" name="_bottom1"/>
  <outline>
    <contour>
      <point x="100" y="-776" type="curve" smooth="yes"/>
      <point x="199" y="-776"/>
      <point x="303" y="-750"/>
      <point x="372" y="-707" type="curve"/>
      <point x="375" y="-675" type="line"/>
      <point x="306" y="-718"/>
      <point x="207" y="-743"/>
      <point x="103" y="-743" type="curve" smooth="yes"/>
      <point x="1" y="-743"/>
      <point x="-105" y="-718"/>
      <point x="-172" y="-675" type="curve"/>
      <point x="-169" y="-707" type="line"/>
      <point x="-104" y="-750"/>
      <point x="0" y="-776"/>
    </contour>
    <contour>
      <point x="100" y="-967" type="curve" smooth="yes"/>
      <point x="199" y="-967"/>
      <point x="303" y="-942"/>
      <point x="372" y="-899" type="curve"/>
      <point x="375" y="-866" type="line"/>
      <point x="306" y="-909"/>
      <point x="207" y="-935"/>
      <point x="103" y="-935" type="curve" smooth="yes"/>
      <point x="1" y="-935"/>
      <point x="-105" y="-909"/>
      <point x="-172" y="-866" type="curve"/>
      <point x="-169" y="-899" type="line"/>
      <point x="-104" y="-941"/>
      <point x="0" y="-967"/>
    </contour>
  </outline>
</glyph>
<glyph name="NaHa.gm" format="2">
  <advance width="1138"/>
  <anchor x="1071" y="-455" name="bottom1"/>
  <anchor x="699" y="1200" name="top"/>
  <outline>
    <contour>
      <point x="273" y="0" type="curve"/>
      <point x="329" y="0" type="line"/>
      <point x="324" y="6" type="line"/>
      <point x="211" y="111"/>
      <point x="168" y="221"/>
      <point x="168" y="374" type="curve" smooth="yes"/>
      <point x="168" y="381" type="line" smooth="yes"/>
      <point x="168" y="619"/>
      <point x="331" y="741"/>
      <point x="574" y="818" type="curve"/>
      <point x="814" y="742"/>
      <point x="981" y="619"/>
      <point x="981" y="381" type="curve" smooth="yes"/>
      <point x="981" y="374" type="line" smooth="yes"/>
      <point x="981" y="214"/>
      <point x="936" y="109"/>
      <point x="828" y="11" type="curve"/>
      <point x="828" y="0" type="line"/>
      <point x="865" y="0" type="line"/>
      <point x="974" y="97"/>
      <point x="1019" y="208"/>
      <point x="1019" y="374" type="curve" smooth="yes"/>
      <point x="1019" y="381" type="line" smooth="yes"/>
      <point x="1019" y="638"/>
      <point x="837" y="778"/>
      <point x="574" y="855" type="curve"/>
      <point x="307" y="778"/>
      <point x="130" y="638"/>
      <point x="130" y="381" type="curve" smooth="yes"/>
      <point x="130" y="376" type="line" smooth="yes"/>
      <point x="130" y="206"/>
      <point x="175" y="97"/>
    </contour>
    <contour>
      <point x="556" y="833" type="line"/>
      <point x="593" y="833" type="line"/>
      <point x="593" y="1176" type="line"/>
      <point x="556" y="1176" type="line"/>
    </contour>
    <contour>
      <point x="21" y="1159" type="line"/>
      <point x="1114" y="1159" type="line"/>
      <point x="1114" y="1193" type="line"/>
      <point x="21" y="1193" type="line"/>
    </contour>
    <contour>
      <point x="584" y="-604" type="curve" smooth="yes"/>
      <point x="765" y="-604"/>
      <point x="865" y="-510"/>
      <point x="865" y="-351" type="curve" smooth="yes"/>
      <point x="865" y="0" type="line"/>
      <point x="828" y="0" type="line"/>
      <point x="828" y="-351" type="line" smooth="yes"/>
      <point x="828" y="-492"/>
      <point x="747" y="-571"/>
      <point x="583" y="-571" type="curve" smooth="yes"/>
      <point x="402" y="-571"/>
      <point x="291" y="-475"/>
      <point x="291" y="-332" type="curve" smooth="yes"/>
      <point x="291" y="-325" type="line" smooth="yes"/>
      <point x="291" y="-223"/>
      <point x="368" y="-159"/>
      <point x="488" y="-159" type="curve" smooth="yes"/>
      <point x="639" y="-159" type="line"/>
      <point x="639" y="-125" type="line"/>
      <point x="488" y="-125" type="line" smooth="yes"/>
      <point x="348" y="-125"/>
      <point x="253" y="-203"/>
      <point x="253" y="-325" type="curve" smooth="yes"/>
      <point x="253" y="-332" type="line" smooth="yes"/>
      <point x="253" y="-495"/>
      <point x="382" y="-604"/>
    </contour>
    <component base="_cap.shiro_left"/>
    <component base="_cap.shiro_right" xOffset="941"/>
  </outline>
</glyph>
<glyph name="NaViramaRa.gm" format="2">
  <advance width="1138"/>
  <anchor x="973" y="-210" name="bottom"/>
  <anchor x="1086" y="-236" name="bottom1"/>
  <anchor x="699" y="1200" name="top"/>
  <outline>
    <contour>
      <point x="273" y="0" type="curve"/>
      <point x="329" y="0" type="line"/>
      <point x="324" y="6" type="line"/>
      <point x="211" y="111"/>
      <point x="168" y="221"/>
      <point x="168" y="374" type="curve" smooth="yes"/>
      <point x="168" y="381" type="line" smooth="yes"/>
      <point x="168" y="619"/>
      <point x="331" y="741"/>
      <point x="574" y="818" type="curve"/>
      <point x="814" y="742"/>
      <point x="981" y="619"/>
      <point x="981" y="381" type="curve" smooth="yes"/>
      <point x="981" y="374" type="line" smooth="yes"/>
      <point x="981" y="214"/>
      <point x="943" y="113"/>
      <point x="835" y="11" type="curve"/>
      <point x="835" y="0" type="line"/>
      <point x="872" y="0" type="line"/>
      <point x="970" y="100"/>
      <point x="1019" y="208"/>
      <point x="1019" y="374" type="curve" smooth="yes"/>
      <point x="1019" y="381" type="line" smooth="yes"/>
      <point x="1019" y="638"/>
      <point x="837" y="778"/>
      <point x="574" y="855" type="curve"/>
      <point x="307" y="778"/>
      <point x="130" y="638"/>
      <point x="130" y="381" type="curve" smooth="yes"/>
      <point x="130" y="376" type="line" smooth="yes"/>
      <point x="130" y="206"/>
      <point x="175" y="97"/>
    </contour>
    <contour>
      <point x="556" y="833" type="line"/>
      <point x="593" y="833" type="line"/>
      <point x="593" y="1176" type="line"/>
      <point x="556" y="1176" type="line"/>
    </contour>
    <contour>
      <point x="21" y="1159" type="line"/>
      <point x="1114" y="1159" type="line"/>
      <point x="1114" y="1193" type="line"/>
      <point x="21" y="1193" type="line"/>
    </contour>
    <contour>
      <point x="1169" y="-522" type="curve"/>
      <point x="1161" y="-469" type="line"/>
      <point x="1076" y="-393"/>
      <point x="941" y="-289"/>
      <point x="826" y="-215" type="curve"/>
      <point x="802" y="-243" type="line"/>
      <point x="926" y="-319"/>
      <point x="1075" y="-433"/>
    </contour>
    <contour>
      <point x="447" y="-246" type="line"/>
      <point x="813" y="-246" type="line"/>
      <point x="837" y="-233" type="line"/>
      <point x="859" y="-188"/>
      <point x="872" y="-111"/>
      <point x="872" y="-26" type="curve" smooth="yes"/>
      <point x="872" y="0" type="line"/>
      <point x="835" y="0" type="line"/>
      <point x="835" y="-26" type="line" smooth="yes"/>
      <point x="835" y="-115"/>
      <point x="823" y="-189"/>
      <point x="803" y="-226" type="curve"/>
      <point x="820" y="-212" type="line"/>
      <point x="457" y="-212" type="line"/>
    </contour>
    <component base="_cap.shiro_left"/>
    <component base="_cap.shiro_right" xOffset="941"/>
  </outline>
</glyph>
<glyph name="Nukta.gm.001" format="2">
  <outline>
    <contour>
      <point x="-876" y="-183" type="curve" smooth="yes"/>
      <point x="-841" y="-183"/>
      <point x="-824" y="-163"/>
      <point x="-824" y="-124" type="curve" smooth="yes"/>
      <point x="-824" y="-114" type="line" smooth="yes"/>
      <point x="-824" y="-76"/>
      <point x="-841" y="-56"/>
      <point x="-876" y="-56" type="curve" smooth="yes"/>
      <point x="-909" y="-56"/>
      <point x="-927" y="-76"/>
      <point x="-927" y="-114" type="curve" smooth="yes"/>
      <point x="-927" y="-124" type="line" smooth="yes"/>
      <point x="-927" y="-163"/>
      <point x="-909" y="-183"/>
    </contour>
  </outline>
</glyph>
<glyph name="PairinHa.gm" format="2">
  <anchor x="700" y="100" name="_bottom"/>
  <anchor x="630" y="70" name="bottom1"/>
  <outline>
    <contour>
      <point x="113" y="-604" type="curve" smooth="yes"/>
      <point x="294" y="-604"/>
      <point x="394" y="-510"/>
      <point x="394" y="-351" type="curve" smooth="yes"/>
      <point x="394" y="32" type="line"/>
      <point x="357" y="32" type="line"/>
      <point x="357" y="-351" type="line" smooth="yes"/>
      <point x="357" y="-492"/>
      <point x="276" y="-571"/>
      <point x="112" y="-571" type="curve" smooth="yes"/>
      <point x="-69" y="-571"/>
      <point x="-180" y="-475"/>
      <point x="-180" y="-332" type="curve" smooth="yes"/>
      <point x="-180" y="-325" type="line" smooth="yes"/>
      <point x="-180" y="-223"/>
      <point x="-103" y="-159"/>
      <point x="17" y="-159" type="curve" smooth="yes"/>
      <point x="168" y="-159" type="line"/>
      <point x="168" y="-125" type="line"/>
      <point x="17" y="-125" type="line" smooth="yes"/>
      <point x="-123" y="-125"/>
      <point x="-218" y="-203"/>
      <point x="-218" y="-325" type="curve" smooth="yes"/>
      <point x="-218" y="-332" type="line" smooth="yes"/>
      <point x="-218" y="-495"/>
      <point x="-89" y="-604"/>
    </contour>
  </outline>
</glyph>
<glyph name="PairinRa.gm" format="2">
  <anchor x="700" y="100" name="_bottom"/>
  <anchor x="630" y="340" name="bottom1"/>
  <outline>
    <contour>
      <point x="691" y="-522" type="curve"/>
      <point x="683" y="-469" type="line"/>
      <point x="598" y="-393"/>
      <point x="463" y="-289"/>
      <point x="348" y="-215" type="curve"/>
      <point x="324" y="-243" type="line"/>
      <point x="448" y="-319"/>
      <point x="597" y="-433"/>
    </contour>
    <contour>
      <point x="-31" y="-246" type="line"/>
      <point x="335" y="-246" type="line"/>
      <point x="359" y="-233" type="line"/>
      <point x="381" y="-188"/>
      <point x="394" y="-111"/>
      <point x="394" y="-26" type="curve" smooth="yes"/>
      <point x="394" y="15" type="line"/>
      <point x="357" y="15" type="line"/>
      <point x="357" y="-26" type="line" smooth="yes"/>
      <point x="357" y="-115"/>
      <point x="345" y="-189"/>
      <point x="325" y="-226" type="curve"/>
      <point x="342" y="-212" type="line"/>
      <point x="-21" y="-212" type="line"/>
    </contour>
  </outline>
</glyph>
<glyph name="PairinVa.gm" format="2">
  <anchor x="700" y="100" name="_bottom"/>
  <anchor x="630" y="70" name="bottom1"/>
  <outline>
    <contour>
      <point x="21" y="-359" type="curve" smooth="yes"/>
      <point x="383" y="-359" type="line"/>
      <point x="383" y="-325" type="line"/>
      <point x="21" y="-325" type="line" smooth="yes"/>
      <point x="-70" y="-325"/>
      <point x="-119" y="-288"/>
      <point x="-119" y="-213" type="curve" smooth="yes"/>
      <point x="-119" y="-143"/>
      <point x="-76" y="-109"/>
      <point x="16" y="-109" type="curve" smooth="yes"/>
      <point x="394" y="-109" type="line"/>
      <point x="394" y="37" type="line"/>
      <point x="357" y="37" type="line"/>
      <point x="357" y="-75" type="line"/>
      <point x="14" y="-75" type="line" smooth="yes"/>
      <point x="-93" y="-75"/>
      <point x="-157" y="-117"/>
      <point x="-157" y="-213" type="curve" smooth="yes"/>
      <point x="-157" y="-305"/>
      <point x="-93" y="-359"/>
    </contour>
    <contour>
      <point x="315" y="-619" type="curve" smooth="yes"/>
      <point x="345" y="-619"/>
      <point x="378" y="-614"/>
      <point x="406" y="-606" type="curve"/>
      <point x="413" y="-574" type="line"/>
      <point x="378" y="-584"/>
      <point x="339" y="-586"/>
      <point x="315" y="-586" type="curve" smooth="yes"/>
      <point x="204" y="-586"/>
      <point x="104" y="-532"/>
      <point x="70" y="-343" type="curve"/>
      <point x="31" y="-342" type="line"/>
      <point x="77" y="-560"/>
      <point x="187" y="-619"/>
    </contour>
  </outline>
</glyph>
<glyph name="Rha.gm" format="2">
  <advance width="1053"/>
  <anchor x="835" y="-214" name="bottom"/>
  <anchor x="1046" y="-186" name="bottom1"/>
  <anchor x="974" y="1200" name="top"/>
  <outline>
    <contour>
      <point x="20" y="1159" type="line"/>
      <point x="1043" y="1159" type="line"/>
      <point x="1043" y="1193" type="line"/>
      <point x="20" y="1193" type="line"/>
    </contour>
    <contour>
      <point x="350" y="-197" type="line"/>
      <point x="398" y="-197" type="line"/>
      <point x="121" y="157" type="line"/>
      <point x="79" y="157" type="line"/>
    </contour>
    <contour>
      <point x="773" y="-351" type="curve" smooth="yes"/>
      <point x="887" y="-351"/>
      <point x="971" y="-296"/>
      <point x="971" y="-197" type="curve" smooth="yes"/>
      <point x="971" y="-143"/>
      <point x="944" y="-101"/>
      <point x="912" y="-54" type="curve" smooth="yes"/>
      <point x="772" y="149" type="line"/>
      <point x="741" y="133" type="line"/>
      <point x="883" y="-73" type="line" smooth="yes"/>
      <point x="911" y="-114"/>
      <point x="933" y="-154"/>
      <point x="933" y="-196" type="curve" smooth="yes"/>
      <point x="933" y="-278"/>
      <point x="866" y="-317"/>
      <point x="773" y="-317" type="curve" smooth="yes"/>
      <point x="673" y="-317"/>
      <point x="575" y="-268"/>
      <point x="575" y="-181" type="curve"/>
      <point x="575" y="-123"/>
      <point x="625" y="-88"/>
      <point x="699" y="-82" type="curve"/>
      <point x="682" y="-51" type="line"/>
      <point x="592" y="-64"/>
      <point x="537" y="-108"/>
      <point x="537" y="-180" type="curve"/>
      <point x="537" y="-295"/>
      <point x="658" y="-351"/>
    </contour>
    <contour>
      <point x="475" y="62" type="curve" smooth="yes"/>
      <point x="735" y="62"/>
      <point x="879" y="163"/>
      <point x="879" y="378" type="curve" smooth="yes"/>
      <point x="879" y="383" type="line" smooth="yes"/>
      <point x="879" y="568"/>
      <point x="789" y="694"/>
      <point x="569" y="694" type="curve"/>
      <point x="593" y="673" type="line"/>
      <point x="593" y="685" type="line"/>
      <point x="760" y="683"/>
      <point x="871" y="805"/>
      <point x="871" y="1041" type="curve" smooth="yes"/>
      <point x="871" y="1173" type="line"/>
      <point x="833" y="1173" type="line"/>
      <point x="833" y="1041" type="line" smooth="yes"/>
      <point x="833" y="848"/>
      <point x="758" y="704"/>
      <point x="559" y="704" type="curve" smooth="yes"/>
      <point x="157" y="704" type="line"/>
      <point x="157" y="670" type="line"/>
      <point x="560" y="670" type="line" smooth="yes"/>
      <point x="761" y="670"/>
      <point x="841" y="542"/>
      <point x="841" y="382" type="curve" smooth="yes"/>
      <point x="841" y="379" type="line" smooth="yes"/>
      <point x="841" y="184"/>
      <point x="713" y="97"/>
      <point x="475" y="97" type="curve" smooth="yes"/>
      <point x="303" y="97"/>
      <point x="167" y="140"/>
      <point x="71" y="206" type="curve"/>
      <point x="79" y="157" type="line"/>
      <point x="163" y="99"/>
      <point x="296" y="62"/>
    </contour>
    <component base="_cap.shiro_left"/>
    <component base="_cap.shiro_right" xOffset="855"/>
  </outline>
</glyph>
<glyph name="TippiDist.gm" format="2">
  <anchor x="500" y="1200" name="_top"/>
  <outline>
    <contour>
      <point x="200" y="1348" type="curve"/>
      <point x="231" y="1348" type="line"/>
      <point x="208" y="1384"/>
      <point x="194" y="1429"/>
      <point x="194" y="1467" type="curve"/>
      <point x="194" y="1562"/>
      <point x="264" y="1621"/>
      <point x="378" y="1621" type="curve" smooth="yes"/>
      <point x="491" y="1621"/>
      <point x="559" y="1562"/>
      <point x="559" y="1467" type="curve" smooth="yes"/>
      <point x="559" y="1428"/>
      <point x="545" y="1383"/>
      <point x="522" y="1348" type="curve"/>
      <point x="554" y="1348" type="line"/>
      <point x="579" y="1383"/>
      <point x="594" y="1428"/>
      <point x="595" y="1471" type="curve" smooth="yes"/>
      <point x="595" y="1586"/>
      <point x="513" y="1657"/>
      <point x="378" y="1657" type="curve" smooth="yes"/>
      <point x="242" y="1657"/>
      <point x="159" y="1586"/>
      <point x="159" y="1471" type="curve"/>
      <point x="159" y="1429"/>
      <point x="174" y="1383"/>
    </contour>
  </outline>
</glyph>
<glyph name="Virama.gm.alt" format="2">
  <anchor x="700" y="100" name="_bottom1"/>
  <outline>
    <contour>
      <point x="422" y="-920" type="line"/>
      <point x="461" y="-920" type="line"/>
      <point x="280" y="-677" type="line"/>
      <point x="237" y="-677" type="line"/>
    </contour>
  </outline>
</glyph>
<glyph name="_EEmatra" format="2">
  <advance width="448"/>
  <anchor x="734" y="1351" name="top1"/>
  <outline>
    <contour>
      <point x="206" y="1188" type="line"/>
      <point x="243" y="1188" type="line"/>
      <point x="243" y="1385" type="line"/>
      <point x="243" y="1575"/>
      <point x="162" y="1674"/>
      <point x="3" y="1674" type="curve" smooth="yes"/>
      <point x="-157" y="1674"/>
      <point x="-237" y="1574"/>
      <point x="-237" y="1385" type="curve"/>
      <point x="-237" y="1313" type="line"/>
      <point x="-199" y="1313" type="line"/>
      <point x="-199" y="1385" type="line"/>
      <point x="-199" y="1552"/>
      <point x="-134" y="1640"/>
      <point x="3" y="1640" type="curve" smooth="yes"/>
      <point x="139" y="1640"/>
      <point x="206" y="1552"/>
      <point x="206" y="1385" type="curve"/>
    </contour>
    <contour>
      <point x="206" y="0" type="line"/>
      <point x="243" y="0" type="line"/>
      <point x="243" y="1169" type="line"/>
      <point x="206" y="1169" type="line"/>
    </contour>
    <contour>
      <point x="-48" y="1159" type="line"/>
      <point x="464" y="1159" type="line"/>
      <point x="472" y="1193" type="line"/>
      <point x="-40" y="1193" type="line"/>
    </contour>
  </outline>
</glyph>
<glyph name="_Ematra" format="2">
  <advance width="449"/>
  <outline>
    <contour>
      <point x="206" y="1188" type="line"/>
      <point x="243" y="1188" type="line"/>
      <point x="243" y="1385" type="line"/>
      <point x="243" y="1552"/>
      <point x="310" y="1640"/>
      <point x="446" y="1640" type="curve" smooth="yes"/>
      <point x="582" y="1640"/>
      <point x="647" y="1552"/>
      <point x="647" y="1385" type="curve"/>
      <point x="647" y="1313" type="line"/>
      <point x="685" y="1313" type="line"/>
      <point x="685" y="1385" type="line"/>
      <point x="685" y="1574"/>
      <point x="605" y="1674"/>
      <point x="446" y="1674" type="curve" smooth="yes"/>
      <point x="286" y="1674"/>
      <point x="206" y="1575"/>
      <point x="206" y="1385" type="curve"/>
    </contour>
    <contour>
      <point x="206" y="0" type="line"/>
      <point x="243" y="0" type="line"/>
      <point x="243" y="1168" type="line"/>
      <point x="206" y="1168" type="line"/>
    </contour>
    <contour>
      <point x="-24" y="1159" type="line"/>
      <point x="491" y="1159" type="line"/>
      <point x="499" y="1193" type="line"/>
      <point x="-16" y="1193" type="line"/>
    </contour>
  </outline>
</glyph>
<glyph name="_danda" format="2">
  <advance width="425"/>
  <outline>
    <contour>
      <point x="182" y="0" type="line"/>
      <point x="219" y="0" type="line"/>
      <point x="219" y="1159" type="line"/>
      <point x="407" y="1159" type="line"/>
      <point x="407" y="1193" type="line"/>
      <point x="182" y="1193" type="line"/>
    </contour>
    <component base="_cap.shiro_right" xOffset="230"/>
  </outline>
</glyph>
<glyph name="_danda001" format="2">
  <advance width="448"/>
  <outline>
    <contour>
      <point x="206" y="461" type="line"/>
      <point x="243" y="461" type="line"/>
      <point x="243" y="1184" type="line"/>
      <point x="206" y="1184" type="line"/>
    </contour>
    <contour>
      <point x="-24" y="1159" type="line"/>
      <point x="464" y="1159" type="line"/>
      <point x="472" y="1193" type="line"/>
      <point x="-16" y="1193" type="line"/>
    </contour>
  </outline>
</glyph>
<glyph name="macroncomb.narrow" format="2">
  <anchor x="365" y="971" name="_top"/>
  <anchor x="366" y="1277" name="top"/>
  <outline>
    <contour>
      <point x="169" y="1212" type="line"/>
      <point x="562" y="1212" type="line"/>
      <point x="562" y="1244" type="line"/>
      <point x="169" y="1244" type="line"/>
    </contour>
  </outline>
</glyph>
